<?xml version="1.0" encoding="UTF-8" standalone="no"?>
<!-- Created with Inkscape (http://www.inkscape.org/) -->

<svg
   xmlns:dc="http://purl.org/dc/elements/1.1/"
   xmlns:cc="http://creativecommons.org/ns#"
   xmlns:rdf="http://www.w3.org/1999/02/22-rdf-syntax-ns#"
   xmlns:svg="http://www.w3.org/2000/svg"
   xmlns="http://www.w3.org/2000/svg"
   xmlns:xlink="http://www.w3.org/1999/xlink"
   xmlns:sodipodi="http://sodipodi.sourceforge.net/DTD/sodipodi-0.dtd"
   xmlns:inkscape="http://www.inkscape.org/namespaces/inkscape"
   width="210mm"
   height="297mm"
   viewBox="0 0 744.09448819 1052.3622047"
   id="svg2"
   version="1.1"
   inkscape:version="0.91 r13725"
   sodipodi:docname="rep.svg">
  <defs
     id="defs4">
    <linearGradient
       inkscape:collect="always"
       id="linearGradient6161">
      <stop
         style="stop-color:#0400ff;stop-opacity:1;"
         offset="0"
         id="stop6163" />
      <stop
         style="stop-color:#0400ff;stop-opacity:0;"
         offset="1"
         id="stop6165" />
    </linearGradient>
    <linearGradient
       inkscape:collect="always"
       id="linearGradient6153">
      <stop
         style="stop-color:#ff9200;stop-opacity:1;"
         offset="0"
         id="stop6155" />
      <stop
         style="stop-color:#ff9200;stop-opacity:0;"
         offset="1"
         id="stop6157" />
    </linearGradient>
    <filter
       inkscape:collect="always"
       style="color-interpolation-filters:sRGB"
       id="filter6106"
       x="-0.06792805"
       width="1.1358561"
       y="-0.10600935"
       height="1.2120187">
      <feGaussianBlur
         inkscape:collect="always"
         stdDeviation="5.8896956"
         id="feGaussianBlur6108" />
    </filter>
    <filter
       inkscape:collect="always"
       style="color-interpolation-filters:sRGB"
       id="filter6147"
       x="-0.075742111"
       width="1.1514842"
       y="-0.054813005"
       height="1.109626">
      <feGaussianBlur
         inkscape:collect="always"
         stdDeviation="5.2600946"
         id="feGaussianBlur6149" />
    </filter>
    <radialGradient
       inkscape:collect="always"
       xlink:href="#linearGradient6153"
       id="radialGradient6159"
       cx="474.26688"
       cy="223.02698"
       fx="474.26688"
       fy="223.02698"
       r="95.961145"
       gradientTransform="matrix(1,0,0,1.3315958,16.162445,-86.076639)"
       gradientUnits="userSpaceOnUse" />
    <radialGradient
       inkscape:collect="always"
       xlink:href="#linearGradient6161"
       id="radialGradient6167"
       cx="231.32456"
       cy="222.01649"
       fx="231.32456"
       fy="222.01649"
       r="118.18117"
       gradientTransform="matrix(1,0,0,0.68373999,0,70.214938)"
       gradientUnits="userSpaceOnUse" />
  </defs>
  <sodipodi:namedview
     id="base"
     pagecolor="#ffffff"
     bordercolor="#666666"
     borderopacity="1.0"
     inkscape:pageopacity="0.0"
     inkscape:pageshadow="2"
     inkscape:zoom="0.98994949"
     inkscape:cx="109.81575"
     inkscape:cy="511.68338"
     inkscape:document-units="px"
     inkscape:current-layer="layer1"
     showgrid="false"
     inkscape:window-width="1869"
     inkscape:window-height="1056"
     inkscape:window-x="51"
     inkscape:window-y="24"
     inkscape:window-maximized="1" />
  <metadata
     id="metadata7">
    <rdf:RDF>
      <cc:Work
         rdf:about="">
        <dc:format>image/svg+xml</dc:format>
        <dc:type
           rdf:resource="http://purl.org/dc/dcmitype/StillImage" />
        <dc:title></dc:title>
      </cc:Work>
    </rdf:RDF>
  </metadata>
  <g
     inkscape:label="Layer 1"
     inkscape:groupmode="layer"
     id="layer1">
    <g
       id="g6169"
       transform="matrix(0,-1,1,0,73.452984,471.02294)">
      <path
         inkscape:connector-curvature="0"
         id="path5971"
         d="m 166.67514,155.34657 a 39.39595,24.748737 0 0 0 -39.39648,24.74804 39.39595,24.748737 0 0 0 35.37304,24.61719 16.162441,30.304577 0 0 0 0.32618,5.16602 61.619305,31.31473 0 0 0 -3.37305,10.11914 61.619305,31.31473 0 0 0 0.38476,3.17773 41.416256,23.233509 0 0 0 -28.66992,22.07618 41.416256,23.233509 0 0 0 41.41602,23.23242 41.416256,23.233509 0 0 0 14.7832,-1.53711 19.697975,43.436558 0 0 0 17.03711,21.74023 19.697975,43.436558 0 0 0 19.48438,-37.42578 61.619305,31.31473 0 0 0 23.45703,-2.97461 21.213203,18.687822 0 0 0 18.17187,9.08594 21.213203,18.687822 0 0 0 21.21485,-18.6875 21.213203,18.687822 0 0 0 -0.64063,-4.47852 71.720833,37.375645 0 0 0 49.12695,-35.42187 71.720833,37.375645 0 0 0 -71.7207,-37.37696 71.720833,37.375645 0 0 0 -57.96875,15.43165 39.39595,24.748737 0 0 0 -39.00586,-21.49219 z"
         style="opacity:1;fill:url(#radialGradient6167);fill-opacity:1;fill-rule:evenodd;stroke:none;stroke-width:7;stroke-linecap:round;stroke-linejoin:round;stroke-miterlimit:4;stroke-dasharray:7, 14;stroke-dashoffset:6.30000019;stroke-opacity:1;filter:url(#filter6106)" />
      <path
         transform="matrix(0,1,-1,0,456.87754,-211.84395)"
         inkscape:connector-curvature="0"
         id="path6110"
         d="m 453.05334,95.747915 a 45.961941,55.558392 0 0 0 -45.96094,55.558585 45.961941,55.558392 0 0 0 18.74218,44.68946 23.233509,25.253813 0 0 0 -13.6914,22.99023 23.233509,25.253813 0 0 0 23.23242,25.25391 23.233509,25.253813 0 0 0 20.17579,-12.76953 66.164993,33.335033 0 0 0 21.36328,8.9414 40.911179,80.812202 0 0 0 -0.12305,4.83789 40.911179,80.812202 0 0 0 40.91211,80.8125 40.911179,80.812202 0 0 0 40.91016,-80.8125 40.911179,80.812202 0 0 0 -0.53711,-12.79882 66.164993,33.335033 0 0 0 15.68945,-21.54688 66.164993,33.335033 0 0 0 -29.98242,-27.875 40.911179,80.812202 0 0 0 -9.28125,-11.38281 29.7995,19.697975 0 0 0 5.92969,-11.75391 29.7995,19.697975 0 0 0 -29.80078,-19.69726 29.7995,19.697975 0 0 0 -12.27344,1.77539 45.961941,55.558392 0 0 0 -45.30469,-46.222655 z m 41.00977,80.505855 a 29.7995,19.697975 0 0 0 1.77734,0.7207 40.911179,80.812202 0 0 0 -0.92773,1.24414 66.164993,33.335033 0 0 0 -1.76563,0.19922 45.961941,55.558392 0 0 0 0.91602,-2.16406 z"
         style="opacity:1;fill:url(#radialGradient6159);fill-opacity:1;fill-rule:evenodd;stroke:none;stroke-width:7;stroke-linecap:round;stroke-linejoin:round;stroke-miterlimit:4;stroke-dasharray:7, 14;stroke-dashoffset:6.30000019;stroke-opacity:1;filter:url(#filter6147)" />
    </g>
  </g>
</svg>
