<?xml version="1.0" encoding="UTF-8" standalone="no"?>
<!DOCTYPE svg PUBLIC "-//W3C//DTD SVG 1.0//EN"
  "http://www.w3.org/TR/SVG/DTD/svg10.dtd">
<svg xmlns="http://www.w3.org/2000/svg" version="1.2" baseProfile="tiny"
     width="728px" height="734px" viewport-fill="#ffffff" >
<desc>
Created with Chemtool 1.6.13 from file /home/globula/Documents/career/my_PhD-Thesis/figures/D.svg 
</desc>
<g>
<line x1="433" y1="596" x2="419" y2="582"
style="stroke-width:2; stroke:#000000" />
<line x1="454" y1="606" x2="495" y2="614"
style="stroke-width:2; stroke:#000000" />
<line x1="495" y1="614" x2="454" y2="606"
style="stroke-width:2; stroke:#000000" />
<line x1="514" y1="607" x2="541" y2="574"
style="stroke-width:2; stroke:#000000" />
<line x1="508" y1="628" x2="510" y2="648"
style="stroke-width:2; stroke:#000000" />
<line x1="541" y1="574" x2="514" y2="607"
style="stroke-width:2; stroke:#000000" />
<line x1="560" y1="567" x2="598" y2="579"
style="stroke-width:2; stroke:#000000" />
<line x1="598" y1="579" x2="560" y2="567"
style="stroke-width:2; stroke:#000000" />
<line x1="510" y1="648" x2="508" y2="628"
style="stroke-width:2; stroke:#000000" />
<line x1="419" y1="582" x2="433" y2="596"
style="stroke-width:2; stroke:#000000" />
<line x1="458" y1="437" x2="436" y2="420"
style="stroke-width:2; stroke:#000000" />
<line x1="431" y1="401" x2="452" y2="340"
style="stroke-width:2; stroke:#000000" />
<line x1="415" y1="413" x2="372" y2="422"
style="stroke-width:2; stroke:#000000" />
<line x1="436" y1="420" x2="458" y2="437"
style="stroke-width:2; stroke:#000000" />
<line x1="452" y1="340" x2="431" y2="401"
style="stroke-width:2; stroke:#000000" />
<line x1="372" y1="422" x2="415" y2="413"
style="stroke-width:2; stroke:#000000" />
<polygon style="fill:#000000; stroke:#000000; stroke-width:1"
            points="415,413 372,418 372,426" />
<line x1="420" y1="423" x2="420" y2="423"
style="stroke-width:1; stroke:#000000" />
<line x1="419" y1="423" x2="419" y2="424"
style="stroke-width:1; stroke:#000000" />
<line x1="419" y1="424" x2="419" y2="425"
style="stroke-width:1; stroke:#000000" />
<line x1="418" y1="425" x2="419" y2="426"
style="stroke-width:1; stroke:#000000" />
<line x1="418" y1="426" x2="418" y2="427"
style="stroke-width:1; stroke:#000000" />
<line x1="417" y1="427" x2="418" y2="428"
style="stroke-width:1; stroke:#000000" />
<line x1="417" y1="428" x2="418" y2="429"
style="stroke-width:1; stroke:#000000" />
<line x1="416" y1="429" x2="417" y2="430"
style="stroke-width:1; stroke:#000000" />
<line x1="447" y1="592" x2="447" y2="592"
style="stroke-width:1; stroke:#000000" />
<line x1="447" y1="591" x2="447" y2="591"
style="stroke-width:1; stroke:#000000" />
<line x1="447" y1="590" x2="447" y2="590"
style="stroke-width:1; stroke:#000000" />
<line x1="447" y1="590" x2="447" y2="590"
style="stroke-width:1; stroke:#000000" />
<line x1="447" y1="589" x2="447" y2="589"
style="stroke-width:1; stroke:#000000" />
<line x1="447" y1="588" x2="447" y2="588"
style="stroke-width:1; stroke:#000000" />
<line x1="448" y1="588" x2="447" y2="588"
style="stroke-width:1; stroke:#000000" />
<line x1="448" y1="587" x2="447" y2="587"
style="stroke-width:1; stroke:#000000" />
<line x1="608" y1="571" x2="608" y2="571"
style="stroke-width:1; stroke:#000000" />
<line x1="608" y1="570" x2="607" y2="570"
style="stroke-width:1; stroke:#000000" />
<line x1="608" y1="570" x2="607" y2="570"
style="stroke-width:1; stroke:#000000" />
<line x1="608" y1="569" x2="607" y2="569"
style="stroke-width:1; stroke:#000000" />
<line x1="608" y1="569" x2="607" y2="569"
style="stroke-width:1; stroke:#000000" />
<line x1="608" y1="569" x2="607" y2="569"
style="stroke-width:1; stroke:#000000" />
<line x1="608" y1="568" x2="607" y2="568"
style="stroke-width:1; stroke:#000000" />
<line x1="608" y1="568" x2="607" y2="568"
style="stroke-width:1; stroke:#000000" />
<polygon style="fill:#000000; stroke:#000000; stroke-width:1"
            points="611,594 610,625 616,625" />
<polygon style="fill:#000000; stroke:#000000; stroke-width:1"
            points="437,614 423,640 427,642" />
<line x1="621" y1="578" x2="643" y2="568"
style="stroke-width:2; stroke:#000000" />
<line x1="545" y1="520" x2="550" y2="553"
style="stroke-width:2; stroke:#000000" />
<line x1="539" y1="520" x2="544" y2="553"
style="stroke-width:2; stroke:#000000" />
<line x1="479" y1="450" x2="475" y2="454"
style="stroke-width:2; stroke:#000000" />
<line x1="484" y1="454" x2="480" y2="458"
style="stroke-width:2; stroke:#000000" />
<line x1="489" y1="459" x2="485" y2="463"
style="stroke-width:2; stroke:#000000" />
<line x1="494" y1="464" x2="490" y2="468"
style="stroke-width:2; stroke:#000000" />
<line x1="500" y1="469" x2="496" y2="473"
style="stroke-width:2; stroke:#000000" />
<line x1="505" y1="474" x2="501" y2="478"
style="stroke-width:2; stroke:#000000" />
<line x1="510" y1="479" x2="506" y2="483"
style="stroke-width:2; stroke:#000000" />
<line x1="516" y1="484" x2="512" y2="488"
style="stroke-width:2; stroke:#000000" />
<line x1="521" y1="489" x2="517" y2="493"
style="stroke-width:2; stroke:#000000" />
<line x1="526" y1="494" x2="522" y2="498"
style="stroke-width:2; stroke:#000000" />
<text x="435" y="612" style="font-family:Helvetica; font-size:16pt; fill:#000000;text-anchor:start;" > 
<tspan>
C</tspan>
</text>
<text x="499" y="625" style="font-family:Helvetica; font-size:16pt; fill:#000000;text-anchor:start;" > 
<tspan>
N</tspan>
</text>
<text x="541" y="573" style="font-family:Helvetica; font-size:16pt; fill:#000000;text-anchor:start;" > 
<tspan>
C</tspan>
</text>
<text x="602" y="591" style="font-family:Helvetica; font-size:16pt; fill:#000000;text-anchor:start;" > 
<tspan>
C</tspan>
</text>
<text x="532" y="517" style="font-family:Helvetica; font-size:16pt; fill:#000000;text-anchor:start;" > 
<tspan>
O</tspan>
</text>
<text x="445" y="584" style="font-family:Helvetica; font-size:16pt; fill:#000000;text-anchor:start;" > 
<tspan>
H</tspan>
</text>
<text x="598" y="565" style="font-family:Helvetica; font-size:16pt; fill:#000000;text-anchor:start;" > 
<tspan>
H</tspan>
</text>
<text x="504" y="668" style="font-family:Helvetica; font-size:16pt; fill:#000000;text-anchor:start;" > 
<tspan>
H</tspan>
</text>
<text x="607" y="645" style="font-family:Helvetica; font-size:16pt; fill:#000000;text-anchor:start;" > 
<tspan>
H</tspan>
</text>
<text x="647" y="573" style="font-family:Helvetica; font-size:16pt; fill:#000000;text-anchor:start;" > 
<tspan>
H</tspan>
</text>
<text x="412" y="660" style="font-family:Helvetica; font-size:16pt; fill:#000000;text-anchor:start;" > 
<tspan>
H</tspan>
</text>
<text x="402" y="583" style="font-family:Helvetica; font-size:16pt; fill:#000000;text-anchor:start;" > 
<tspan>
H</tspan>
</text>
<text x="460" y="453" style="font-family:Helvetica; font-size:16pt; fill:#000000;text-anchor:start;" > 
<tspan>
H</tspan>
</text>
<text x="419" y="421" style="font-family:Helvetica; font-size:16pt; fill:#000000;text-anchor:start;" > 
<tspan>
C</tspan>
</text>
<text x="393" y="445" style="font-family:Helvetica; font-size:16pt; fill:#000000;text-anchor:start;" > 
<tspan>
CL</tspan>
</text>
<text x="449" y="337" style="font-family:Helvetica; font-size:16pt; fill:#000000;text-anchor:start;" > 
<tspan>
CL</tspan>
</text>
<text x="353" y="431" style="font-family:Helvetica; font-size:16pt; fill:#000000;text-anchor:start;" > 
<tspan>
CL</tspan>
</text>
</g>
</svg>
