<?xml version="1.0" standalone="yes"?>
<svg width="194" height="291">
<path style="fill:#ffffff; stroke:none;" d="M0 0L0 289L194 289L194 0L0 0z"/>
<path style="fill:#777777; stroke:none;" d="M110 7L110 22L110.722 21.2222L110.75 20.6945L110.944 19.8889L110.972 18.9722L111 17L111 16L111 14L111 12L111 11L110.972 10.0278L110.944 9.11111L110.75 8.30554L110.722 7.77777L110 7z"/>
<path style="fill:#666666; stroke:none;" d="M111 7L111 22L113 22L113 15L119 15L119 22L122 22L122 7L119 7L119 14L114 14L113 13L113 7L111 7z"/>
<path style="fill:#959595; stroke:none;" d="M113 7L113 13L113.722 12.2222L113.75 11.6945L113.944 10.8889L113.944 9.11111L113.75 8.30554L113.722 7.77777L113 7z"/>
<path style="fill:#9f9f9f; stroke:none;" d="M122 7L122 22L122.722 21.2222L122.75 20.6945L122.944 19.8889L122.972 18.9722L123 17L123 16L123 14L123 12L123 11L122.972 10.0278L122.944 9.11111L122.75 8.30554L122.722 7.77777L122 7z"/>
<path style="fill:#828282; stroke:none;" d="M114 13L114.778 13.7222L115.306 13.75L116.056 13.9445L116.972 13.9722L119 14L118.222 13.2778L117.694 13.25L116.944 13.0555L116.028 13.0278L114 13z"/>
<path style="fill:#959595; stroke:none;" d="M113 15L113 22L113.722 21.2222L113.75 20.6945L113.944 19.8889L113.972 18.9722L113.944 17.1111L113.75 16.3055L113.722 15.7778L113 15z"/>
<path style="fill:#c4c4c4; stroke:none;" d="M114 15L114.778 15.7222L115.306 15.75L116.056 15.9445L116.972 15.9722L119 16L118.222 15.2778L117.694 15.25L116.944 15.0555L116.028 15.0278L114 15z"/>
<path style="fill:#757575; stroke:none;" d="M105 19L106 20L105 19z"/>
<path style="fill:#000000; stroke:none;" d="M106 19L104.5 20.0555L103.944 20.3889L102 21.6111L100 22.75L99 23.25L98 23.8333L97 24.3889L95.0278 25.6111L93.3333 26.7778L92.7222 27.4167L92.3611 27.7778L92 29L93.5 28.7222L95.0556 28.0833L96 27.5833L98 26.3889L100 25.25L101 24.75L102 24.1667L103 23.6111L104.972 22.3889L106.667 21.2222L107.278 20.5833L107.639 20.2222L108 19L106 19z"/>
<path style="fill:#969696; stroke:none;" d="M103 20L104 21L103 20z"/>
<path style="fill:#c6c6c6; stroke:none;" d="M101 21L102 22L101 21z"/>
<path style="fill:#363636; stroke:none;" d="M102 21L103 22L102 21z"/>
<path style="fill:#656565; stroke:none;" d="M106 21L107 22L106 21z"/>
<path style="fill:#565656; stroke:none;" d="M100 22L101 23L100 22z"/>
<path style="fill:#363636; stroke:none;" d="M104 22L105 23L104 22z"/>
<path style="fill:#c6c6c6; stroke:none;" d="M105 22L106 23L105 22z"/>
<path style="fill:#e2e2e2; stroke:none;" d="M110 22L110.778 22.7222L111.25 22.75L112.056 22.9445L114 23L113.222 22.2778L112.75 22.25L111.944 22.0555L110 22M119 22L119.778 22.7222L120.25 22.75L121.056 22.9445L123 23L122.222 22.2778L121.75 22.25L120.944 22.0555L119 22z"/>
<path style="fill:#7e7e7e; stroke:none;" d="M98 23L99 24L98 23z"/>
<path style="fill:#a5a5a5; stroke:none;" d="M103 23L104 24L103 23z"/>
<path style="fill:#969696; stroke:none;" d="M96 24L97 25L96 24z"/>
<path style="fill:#7e7e7e; stroke:none;" d="M101 24L102 25L101 24z"/>
<path style="fill:#cecece; stroke:none;" d="M94 25L95 26L94 25z"/>
<path style="fill:#3e3e3e; stroke:none;" d="M95 25L96 26L95 25z"/>
<path style="fill:#656565; stroke:none;" d="M99 25L100 26L99 25z"/>
<path style="fill:#ff6767; stroke:none;" d="M80 26L80.7778 26.7222L81.25 26.75L82.0556 26.9445L84 27L83.2222 26.2778L82.75 26.25L81.9444 26.0555L80 26z"/>
<path style="fill:#ffa5a5; stroke:none;" d="M84 26L85 27L84 26z"/>
<path style="fill:#5f5f5f; stroke:none;" d="M93 26L94 27L93 26z"/>
<path style="fill:#2d2d2d; stroke:none;" d="M97 26L98 27L97 26z"/>
<path style="fill:#bdbdbd; stroke:none;" d="M98 26L99 27L98 26z"/>
<path style="fill:#ff5656; stroke:none;" d="M78 27L79 28L78 27z"/>
<path style="fill:#ff0000; stroke:none;" d="M79.0833 27.5L77.5 28.5L76.5 30.0833L76.0833 32L76.0278 33L76.0278 35L76.0833 36L76.5 37.9722L76.9444 38.9167L78.25 40.5L79.0833 41.0556L80.0278 41.5L81 41.75L83 41.8889L84.9167 41.5L86.5278 40.5L87.7222 38.9167L88.1389 37.9722L88.5278 37L88.9167 35L88.9167 33L88.75 32L88.0556 30.0278L87.5 29.1111L85.9167 27.7222L84.9722 27.3333L84 27.1111L82 27.0278L80.0278 27.25L79.0833 27.5z"/>
<path style="fill:#ff9c9c; stroke:none;" d="M86 27L87 28L86 27z"/>
<path style="fill:#b7b7b7; stroke:none;" d="M91 27L92 28L91 27z"/>
<path style="fill:#9e9e9e; stroke:none;" d="M96 27L97 28L96 27z"/>
<path style="fill:#ff8e8e; stroke:none;" d="M87 28L88 29L87 28z"/>
<path style="fill:#2d2d2d; stroke:none;" d="M91 28L92 29L91 28z"/>
<path style="fill:#656565; stroke:none;" d="M94 28L95 29L94 28z"/>
<path style="fill:#ff7575; stroke:none;" d="M76 29L77 30L76 29z"/>
<path style="fill:#ff8686; stroke:none;" d="M80 29L81 30L80 29z"/>
<path style="fill:#ffffff; stroke:none;" d="M80 39L84 39L85 38L85 34.9445L85 34L84.9722 33L84.9444 32.0555L84.75 31.0555L84.7222 30.5L84 29L81.9722 29.3333L81.0556 29.7222L79.7222 31.1111L79.1111 33L79.0833 35L79.4167 36.9444L80 39z"/>
<path style="fill:#c6c6c6; stroke:none;" d="M91 29L92 30L91 29z"/>
<path style="fill:#6f6f6f; stroke:none;" d="M92 29L93 30L92 29z"/>
<path style="fill:#ff5757; stroke:none;" d="M79 30L80 31L79 30z"/>
<path style="fill:#ff7d7d; stroke:none;" d="M88 30L89 31L88 30z"/>
<path style="fill:#ff9494; stroke:none;" d="M75 31L75 34L75.6944 33.25L75.6944 32.1945L75.6944 31.75L75 31z"/>
<path style="fill:#ff8686; stroke:none;" d="M85 32L85 37L85.7222 36.2222L85.75 35.6944L85.9167 34.0833L85.75 33.3055L85.7222 32.7778L85 32z"/>
<path style="fill:#ff7777; stroke:none;" d="M75 34L75 37L75.6944 36.25L75.6944 35.1944L75.6944 34.75L75 34z"/>
<path style="fill:#ff8484; stroke:none;" d="M79 37L80 38L79 37z"/>
<path style="fill:#ff4646; stroke:none;" d="M88 37L89 38L88 37z"/>
<path style="fill:#ff3535; stroke:none;" d="M76 38L77 39L76 38z"/>
<path style="fill:#ff8686; stroke:none;" d="M84 38L85 39L84 38z"/>
<path style="fill:#ffb5b5; stroke:none;" d="M88 38L89 39L88 38z"/>
<path style="fill:#ffbdbd; stroke:none;" d="M76 39L77 40L76 39z"/>
<path style="fill:#ff8080; stroke:none;" d="M81 39L81.7222 39.7222L82.25 39.75L84 40L83.2778 39.2778L82.75 39.25L81 39z"/>
<path style="fill:#ff3535; stroke:none;" d="M87 39L88 40L87 39z"/>
<path style="fill:#ff7d7d; stroke:none;" d="M77 40L78 41L77 40z"/>
<path style="fill:#ff5656; stroke:none;" d="M79 41L80 42L79 41z"/>
<path style="fill:#ff8686; stroke:none;" d="M85 41L86 42L85 41z"/>
<path style="fill:#868686; stroke:none;" d="M81 44L82 45L81 44z"/>
<path style="fill:#2d2d2d; stroke:none;" d="M82 44L83 45L82 44z"/>
<path style="fill:#0d0d0d; stroke:none;" d="M81 45L81 73L81.7222 72.2222L81.75 71.6944L81.9444 70.8889L81.9722 69.9722L82 68L82 67L82 65L82 52L82 50L82 49L81.9722 48.0278L81.9444 47.1111L81.75 46.3056L81.7222 45.7778L81 45z"/>
<path style="fill:#000000; stroke:none;" d="M82 45L82 73L80.5 73.5L79.9444 73.8333L78.9444 74.2778L77 75.3889L75 76.6111L73 77.75L72 78.25L70 79.3889L68 80.6111L66 81.75L65 82.25L63 83.3889L61 84.6111L59 85.75L58 86.25L56 87.3889L54 88.6111L53 89.1944L52 89.8056L51 90.3333L50 90.8333L48 91.2222L47 91.0278L45 90.1667L44 89.6111L42 88.3889L40 87.25L39 86.75L37 85.6111L35 84.3889L33 83.25L32 82.75L30 81.6111L28 80.3889L27 79.8333L26.0556 79.2778L25.0556 78.8333L24.5 78.5L23 78L23.3611 79.4167L24.3333 80.5833L26.0278 81.8056L27 82.3889L29 83.6111L30 84.1667L31 84.75L32 85.25L34 86.3889L36 87.6111L37 88.1944L39 89.3889L41 90.6111L42 91.1667L43 91.7222L43.9444 92.1389L45.5 92.7222L47 93L47 133L45.5 133.278L43.9444 133.917L43 134.417L41 135.611L39 136.75L38 137.25L36 138.389L34 139.611L32 140.75L31 141.25L30 141.833L29 142.389L27 143.611L26.0278 144.194L24.3333 145.417L23.3611 146.583L23 148L24.5 147.5L25.0556 147.167L26.0556 146.75L28 145.75L29 145.167L30 144.611L32 143.389L34 142.25L35 141.75L37 140.611L39 139.389L40 138.806L42 137.611L44 136.389L45 135.861L47 135.111L48 134.944L49 135.111L50 135.333L52 136.25L53 136.833L54 137.389L56 138.611L58 139.75L59 140.25L61 141.389L63 142.611L64 143.194L66 144.389L68 145.611L70 146.75L71 147.25L73 148.389L75 149.611L77 150.75L77.9722 151.25L79.75 152.472L80.5 153.25L81.5 155.028L81.9167 157L82 159L82 160L82 161L82 164L82 191L80.5 191.528L79.9444 191.889L78.9444 192.417L77 193.611L75 194.75L74 195.25L72 196.389L70 197.611L68 198.75L67 199.25L65 200.389L64 201L63 201.611L61 202.806L60.0278 203.389L58.3333 204.639L57.3611 205.75L57 207L58.5 206.667L59.0556 206.361L60.0556 205.917L61 205.361L63 204.25L64 203.75L66 202.611L68 201.389L70 200.25L71 199.75L73 198.611L75 197.389L77 196.194L78 195.639L78.9444 195.083L79.9444 194.639L80.5 194.333L82 194L82 221L82.7222 220.222L82.75 219.694L82.9444 218.889L82.9722 217.972L83 216L83 215L83 212L83 194L84.5 194.5L85.0556 194.833L86.0556 195.278L88 196.389L90 197.611L91 198.194L93 199.389L95 200.611L97 201.75L98 202.25L100 203.389L102 204.611L104 205.75L105 206.25L107 207.389L109 208.611L111 209.75L111.972 210.25L113.75 211.472L114.5 212.25L115.5 214.028L115.75 215L115.917 216L116 218L116 220L116 223L116 241L116.722 240.222L116.75 239.694L116.944 238.889L116.972 237.972L117 236L117 235L117 232L117 213L118.5 214.056L119.056 214.389L121 215.611L123 216.75L124 217.25L126 218.389L128 219.611L130 220.75L131 221.25L133 222.389L135 223.611L137 224.75L138 225.25L140 226.389L142 227.611L143 228.194L145 229.389L146.944 230.583L147.944 231.111L148.5 231.472L150 232L150 271L150.722 270.222L150.75 269.694L150.944 268.889L150.972 267.972L151 266L151 264L151 259L151 244L151 239L151 237L151.083 235L151.222 234.056L151.417 233.056L152 231L151 230L149 230L149 228L150.5 227.722L152.056 227.083L153 226.583L155 225.389L157 224.25L158 223.75L160 222.611L162 221.389L164 220.194L165 219.611L166 219L167 218.389L169 217.25L169.972 216.75L171.667 215.583L172.639 214.417L173 213L171.5 213.5L170.944 213.833L169.944 214.25L168 215.25L167 215.833L166 216.389L164 217.611L162 218.75L161 219.25L159 220.389L157 221.611L155 222.75L154 223.25L152 224.389L150.111 225.639L149.306 226.361L148.778 226.75L148 228L146.5 227.5L145.944 227.167L144.944 226.722L144 226.167L143 225.611L141 224.389L139 223.25L138 222.75L136 221.611L134 220.389L132 219.194L131 218.611L129 217.389L127 216.25L126 215.75L124 214.611L122.056 213.417L121.056 212.889L120.5 212.528L119 212L120.5 210.75L121.056 210.361L122.056 209.639L124 208.389L126 207.25L127 206.75L129 205.611L131 204.389L133 203.25L134 202.75L136 201.611L138 200.389L139.944 199.25L140.5 199L142 198L141.222 197.306L140.694 197.333L138.972 197.5L137 198.278L135 199.389L134 200L133 200.611L131 201.75L130 202.25L128 203.389L126 204.611L125 205.194L123 206.389L121 207.611L120 208.167L119 208.694L117 209.278L116 209.278L114 208.694L113 208.167L111 207L110 206.389L108 205.25L107 204.75L105 203.611L103 202.389L101 201.25L100 200.75L98 199.611L96 198.389L94 197.25L93 196.75L92 196.167L90 195L89 194.389L87 193.167L86.0278 192.528L84.3333 190.917L83.7222 189.972L83.1111 188L83.0278 187L83 185L83 183L83 180L83 153L84.5 152.472L85.0556 152.111L86.0556 151.583L88 150.389L90 149.25L91 148.75L93 147.611L95 146.389L97 145.25L98 144.75L100 143.611L102 142.389L104 141.194L105 140.611L107 139.389L109 138.25L110 137.75L112 136.611L114 135.444L115 135.028L116 134.806L118 135.167L119 135.667L121 136.75L122 137.25L124 138.389L126 139.611L128 140.75L129 141.25L131 142.389L133 143.611L134 144.194L136 145.389L138 146.583L138.944 147.083L140.5 147.722L142 148L141.639 146.75L140.667 145.639L138.972 144.389L137 143.25L136 142.75L134 141.611L132 140.389L130 139.25L129 138.75L127 137.611L125 136.389L123 135.194L122 134.611L120.056 133.417L119.056 132.889L118.5 132.528L117 132L117 94L118.5 93.4722L119.056 93.1111L120.056 92.5833L122 91.3889L124 90.25L125 89.75L127 88.6111L129 87.3889L131 86.25L132 85.75L133 85.1667L134 84.6111L136 83.3889L137.972 82.1667L138.889 81.5833L139.694 80.8056L140.222 80.4167L141 79L139.5 79.2778L137.944 79.8611L137 80.25L136 80.7778L135 81.25L134 81.8333L133 82.3889L131 83.6111L129 84.75L128 85.25L126 86.3889L124 87.6111L122 88.75L121 89.25L119 90.3333L118 90.8333L116 91.1944L115 90.9722L114 90.5556L112 89.3889L110 88.25L109 87.75L107 86.6111L105 85.3889L103 84.25L102 83.75L100 82.6111L98 81.3889L96 80.1944L95 79.6111L93 78.3889L91 77.25L90 76.75L88 75.6111L86.0556 74.4167L85.0556 73.8889L84.5 73.5278L83 73L83 54L83 51L83 50L82.9722 48.0278L82.9444 47.1111L82.75 46.3056L82.7222 45.7778L82 45z"/>
<path style="fill:#8c8c8c; stroke:none;" d="M83 45L83 73L83.7222 72.2222L83.75 71.6944L83.9444 70.8889L83.9722 69.9722L84 68L84 67L84 65L84 52L84 50L84 49L83.9722 48.0278L83.9444 47.1111L83.75 46.3056L83.7222 45.7778L83 45z"/>
<path style="fill:#d7d7d7; stroke:none;" d="M7 66L7 73L7 75L7 76L7.02778 78L7.11111 78.9722L7.33333 79.8889L7.72222 80.6667L8.27778 81.2778L9.05556 81.6667L11 82L10.2778 81.2778L9.75 81.25L8 81L8 75L8 73L8 72L8 70L7.97222 69.0278L7.94444 68.1111L7.75 67.3056L7.72222 66.7778L7 66z"/>
<path style="fill:#666666; stroke:none;" d="M8 66L8 81L11 81L11 74L17 74L17 81L20 81L20 66L17 66L17 73L11 73L11 66L8 66z"/>
<path style="fill:#cecece; stroke:none;" d="M11 66L11 72L11.7222 71.2222L11.75 70.6944L11.9444 69.8889L11.9444 68.1111L11.75 67.3056L11.7222 66.7778L11 66M16 66L16 72L16.7222 71.2222L16.75 70.6944L16.9444 69.8889L16.9444 68.1111L16.75 67.3056L16.7222 66.7778L16 66M20 66L20 81L20.7222 80.2222L20.75 79.6944L20.9444 78.8889L20.9722 77.9722L21 77L21 76L21 74L21 72L21 71L20.9722 69.0278L20.9444 68.1111L20.75 67.3056L20.7222 66.7778L20 66z"/>
<path style="fill:#8b8b8b; stroke:none;" d="M144 66L144 81L144.722 80.2222L144.75 79.6944L144.944 78.8889L144.972 77.9722L145 77L145 76L145 74L145 72L145 71L144.972 69.0278L144.944 68.1111L144.75 67.3056L144.722 66.7778L144 66z"/>
<path style="fill:#666666; stroke:none;" d="M145 66L145 81L147 81L147 74L153 74L154 75L154 81L156 81L156 66L154 66L154 72L153 73L148 73L147 72L147 66L145 66z"/>
<path style="fill:#828282; stroke:none;" d="M147 66L147 72L147.722 71.2222L147.75 70.6944L147.944 69.8889L147.944 68.1111L147.75 67.3056L147.722 66.7778L147 66M153 66L153 72L153.722 71.2222L153.75 70.6944L153.944 69.8889L153.944 68.1111L153.75 67.3056L153.722 66.7778L153 66z"/>
<path style="fill:#8b8b8b; stroke:none;" d="M156 66L156 81L156.722 80.2222L156.75 79.6944L156.944 78.8889L156.972 77.9722L157 76L157 75L157 73L157 71L157 70L156.972 69.0278L156.944 68.1111L156.75 67.3056L156.722 66.7778L156 66M11 72L11.7778 72.7222L12.3056 72.75L13.1111 72.9444L13.9722 72.9722L14.9444 73L17 73L16.2222 72.2778L15.6944 72.25L14.8889 72.0556L14.0278 72.0278L13.0556 72L11 72M148 72L148.778 72.7222L149.306 72.75L150.056 72.9444L150.972 72.9722L153 73L152.222 72.2778L151.694 72.25L150.944 72.0556L150.028 72.0278L148 72z"/>
<path style="fill:#464646; stroke:none;" d="M80 73L81 74L80 73z"/>
<path style="fill:#9c9c9c; stroke:none;" d="M84 73L85 74L84 73z"/>
<path style="fill:#bababa; stroke:none;" d="M11 74L11.7778 74.7222L12.3056 74.75L13.1111 74.9444L13.9722 74.9722L14.9444 75L17 75L16.2222 74.2778L15.6944 74.25L14.8889 74.0556L14.0278 74.0278L13.0556 74L11 74z"/>
<path style="fill:#6d6d6d; stroke:none;" d="M78 74L79 75L78 74z"/>
<path style="fill:#b5b5b5; stroke:none;" d="M86 74L87 75L86 74z"/>
<path style="fill:#828282; stroke:none;" d="M147 74L147 81L147.722 80.2222L147.75 79.6944L147.944 78.8889L147.972 77.9722L147.944 76.1111L147.75 75.3056L147.722 74.7778L147 74z"/>
<path style="fill:#bababa; stroke:none;" d="M148 74L148.778 74.7222L149.306 74.75L150.056 74.9444L150.972 74.9722L153 75L152.222 74.2778L151.694 74.25L150.944 74.0556L150.028 74.0278L148 74z"/>
<path style="fill:#cecece; stroke:none;" d="M11 75L11 81L11.7222 80.2222L11.75 79.6944L11.9444 78.8889L11.9444 77.1111L11.75 76.3056L11.7222 75.7778L11 75M16 75L16 81L16.7222 80.2222L16.75 79.6944L16.9444 78.8889L16.9444 77.1111L16.75 76.3056L16.7222 75.7778L16 75z"/>
<path style="fill:#969696; stroke:none;" d="M76 75L77 76L76 75M81 75L82 76L81 75z"/>
<path style="fill:#ffffff; stroke:none;" d="M82 75L80.5 76L79.9444 76.25L78.9444 76.8611L78 77.3889L76 78.6111L75 79.1944L73 80.3889L71 81.6111L69 82.75L68 83.25L66 84.3889L64 85.6111L62 86.75L61 87.25L59 88.3889L57 89.6111L55 90.8056L54 91.3889L52.0556 92.6111L51.5 92.9444L50 94L50 121L50 125L50 127L50 128L50.1111 130L50.3333 130.972L50.7222 131.917L52.1111 133.528L54 134.75L55 135.25L57 136.389L59 137.611L60 138.167L61 138.75L62 139.25L64 140.389L66 141.611L68 142.806L69 143.389L71 144.611L73 145.75L74 146.25L76 147.389L78 148.611L79.9444 149.722L80.9444 150.167L81.5 150.5L83 151L84.5 149.778L86.0556 148.806L87 148.25L88 147.75L90 146.611L92 145.389L94 144.25L95 143.75L97 142.611L99 141.389L100 140.806L102 139.611L104 138.389L106 137.25L107 136.75L109 135.611L111 134.389L111.944 133.861L112.944 133.25L113.5 133L115 132L115 94L113.5 93L112.944 92.75L111.944 92.1389L111 91.6111L109 90.3889L107 89.25L106 88.75L104 87.6111L102 86.3889L100 85.25L99 84.75L97 83.6111L95 82.3889L93 81.1944L92 80.6111L90 79.3889L88 78.25L87 77.75L86 77.1667L84.0556 76.0556L83.5 75.6944L82 75z"/>
<path style="fill:#4e4e4e; stroke:none;" d="M83 75L84 76L83 75z"/>
<path style="fill:#555555; stroke:none;" d="M87 75L88 76L87 75z"/>
<path style="fill:#828282; stroke:none;" d="M153 75L153 81L153.722 80.2222L153.75 79.6944L153.944 78.8889L153.944 77.1111L153.75 76.3056L153.722 75.7778L153 75z"/>
<path style="fill:#c6c6c6; stroke:none;" d="M74 76L75 77L74 76z"/>
<path style="fill:#2f2f2f; stroke:none;" d="M75 76L76 77L75 76z"/>
<path style="fill:#656565; stroke:none;" d="M79 76L80 77L79 76z"/>
<path style="fill:#a4a4a4; stroke:none;" d="M84 76L85 77L84 76z"/>
<path style="fill:#656565; stroke:none;" d="M89 76L90 77L89 76z"/>
<path style="fill:#565656; stroke:none;" d="M73 77L74 78L73 77z"/>
<path style="fill:#363636; stroke:none;" d="M77 77L78 78L77 77z"/>
<path style="fill:#969696; stroke:none;" d="M86 77L87 78L86 77z"/>
<path style="fill:#9c9c9c; stroke:none;" d="M91 77L92 78L91 77z"/>
<path style="fill:#7e7e7e; stroke:none;" d="M22.3333 78.6667L22.3333 79L22.6667 79.3333L22.6667 79L22.3333 78.6667z"/>
<path style="fill:#545454; stroke:none;" d="M24 78L25 79L24 78z"/>
<path style="fill:#7e7e7e; stroke:none;" d="M71 78L72 79L71 78z"/>
<path style="fill:#a5a5a5; stroke:none;" d="M76 78L77 79L76 78z"/>
<path style="fill:#5d5d5d; stroke:none;" d="M88 78L89 79L88 78z"/>
<path style="fill:#b5b5b5; stroke:none;" d="M93 78L94 79L93 78z"/>
<path style="fill:#969696; stroke:none;" d="M139 78L140 79L139 78z"/>
<path style="fill:#1d1d1d; stroke:none;" d="M140 78L140 79L142 80L142 78L140 78z"/>
<path style="fill:#656565; stroke:none;" d="M26 79L27 80L26 79z"/>
<path style="fill:#969696; stroke:none;" d="M69 79L70 80L69 79z"/>
<path style="fill:#7e7e7e; stroke:none;" d="M74 79L75 80L74 79z"/>
<path style="fill:#464646; stroke:none;" d="M90 79L91 80L90 79z"/>
<path style="fill:#5d5d5d; stroke:none;" d="M94 79L95 80L94 79z"/>
<path style="fill:#c6c6c6; stroke:none;" d="M137 79L138 80L137 79z"/>
<path style="fill:#363636; stroke:none;" d="M138 79L139 80L138 79z"/>
<path style="fill:#969696; stroke:none;" d="M23 80L24 81L23 80z"/>
<path style="fill:#9c9c9c; stroke:none;" d="M28 80L29 81L28 80z"/>
<path style="fill:#c6c6c6; stroke:none;" d="M67 80L68 81L67 80z"/>
<path style="fill:#363636; stroke:none;" d="M68 80L69 81L68 80z"/>
<path style="fill:#656565; stroke:none;" d="M72 80L73 81L72 80z"/>
<path style="fill:#9c9c9c; stroke:none;" d="M91 80L92 81L91 80z"/>
<path style="fill:#757575; stroke:none;" d="M96 80L97 81L96 80z"/>
<path style="fill:#565656; stroke:none;" d="M136 80L137 81L136 80z"/>
<path style="fill:#363636; stroke:none;" d="M140 80L141 81L140 80z"/>
<path style="fill:#c5c5c5; stroke:none;" d="M141 80L142 81L141 80z"/>
<path style="fill:#d7d7d7; stroke:none;" d="M17 81L17.7222 81.7222L18.25 81.75L20 82L19.2778 81.2778L18.75 81.25L17 81z"/>
<path style="fill:#5c5c5c; stroke:none;" d="M25 81L26 82L25 81z"/>
<path style="fill:#2d2d2d; stroke:none;" d="M29 81L30 82L29 81z"/>
<path style="fill:#c6c6c6; stroke:none;" d="M30 81L31 82L30 81z"/>
<path style="fill:#5f5f5f; stroke:none;" d="M66 81L67 82L66 81z"/>
<path style="fill:#363636; stroke:none;" d="M70 81L71 82L70 81z"/>
<path style="fill:#c6c6c6; stroke:none;" d="M71 81L72 82L71 81z"/>
<path style="fill:#b5b5b5; stroke:none;" d="M81.6667 81.3333L82 81.6667L82.3333 81.6667L82 81.3333L81.6667 81.3333z"/>
<path style="fill:#8e8e8e; stroke:none;" d="M93 81L94 82L93 81z"/>
<path style="fill:#a5a5a5; stroke:none;" d="M98 81L99 82L98 81z"/>
<path style="fill:#8e8e8e; stroke:none;" d="M134 81L135 82L134 81z"/>
<path style="fill:#a5a5a5; stroke:none;" d="M139 81L140 82L139 81z"/>
<path style="fill:#d7d7d7; stroke:none;" d="M144 81L144.778 81.7222L145.25 81.75L146.056 81.9444L148 82L147.222 81.2778L146.75 81.25L145.944 81.0556L144 81M153 81L153.778 81.7222L154.25 81.75L155.056 81.9444L157 82L156.222 81.2778L155.75 81.25L154.944 81.0556L153 81z"/>
<path style="fill:#cecece; stroke:none;" d="M26 82L27 83L26 82z"/>
<path style="fill:#363636; stroke:none;" d="M27 82L28 83L27 82z"/>
<path style="fill:#656565; stroke:none;" d="M31 82L32 83L31 82z"/>
<path style="fill:#969696; stroke:none;" d="M64 82L65 83L64 82z"/>
<path style="fill:#a5a5a5; stroke:none;" d="M69 82L70 83L69 82z"/>
<path style="fill:#5f5f5f; stroke:none;" d="M80 82L81 83L80 82z"/>
<path style="fill:#000000; stroke:none;" d="M81 82L79.5 83L78.9444 83.25L77.9444 83.8611L77 84.3889L75 85.6111L73 86.75L72 87.25L70 88.3889L68 89.6111L66 90.8056L65 91.3889L63 92.6111L61 93.75L59 94.8333L58.0278 95.3889L56.3333 96.6389L55.3611 97.75L55 99L56.5 98.7222L58.0556 98.0833L60 97L61 96.3889L63 95.1944L64 94.6111L65 94L67 92.8333L68 92.25L69 91.75L71 90.6111L73 89.3889L75 88.25L76 87.75L77 87.1667L78 86.6111L79.9722 85.3889L81.6667 84.2222L82.2778 83.5833L82.6389 83.2222L83 82L81 82z"/>
<path style="fill:#565656; stroke:none;" d="M95 82L96 83L95 82z"/>
<path style="fill:#363636; stroke:none;" d="M99 82L100 83L99 82z"/>
<path style="fill:#cecece; stroke:none;" d="M100 82L101 83L100 82z"/>
<path style="fill:#a7a7a7; stroke:none;" d="M132 82L133 83L132 82z"/>
<path style="fill:#7e7e7e; stroke:none;" d="M137 82L138 83L137 82z"/>
<path style="fill:#969696; stroke:none;" d="M28 83L29 84L28 83z"/>
<path style="fill:#868686; stroke:none;" d="M33 83L34 84L33 83z"/>
<path style="fill:#b5b5b5; stroke:none;" d="M62 83L63 84L62 83z"/>
<path style="fill:#6d6d6d; stroke:none;" d="M67 83L68 84L67 83z"/>
<path style="fill:#969696; stroke:none;" d="M78 83L79 84L78 83z"/>
<path style="fill:#c6c6c6; stroke:none;" d="M96 83L97 84L96 83z"/>
<path style="fill:#2d2d2d; stroke:none;" d="M97 83L98 84L97 83z"/>
<path style="fill:#656565; stroke:none;" d="M101 83L102 84L101 83z"/>
<path style="fill:#464646; stroke:none;" d="M131 83L132 84L131 83z"/>
<path style="fill:#5f5f5f; stroke:none;" d="M135 83L136 84L135 83z"/>
<path style="fill:#757575; stroke:none;" d="M30 84L31 85L30 84z"/>
<path style="fill:#a5a5a5; stroke:none;" d="M35 84L36 85L35 84z"/>
<path style="fill:#464646; stroke:none;" d="M61 84L62 85L61 84z"/>
<path style="fill:#4e4e4e; stroke:none;" d="M65 84L66 85L65 84z"/>
<path style="fill:#b5b5b5; stroke:none;" d="M76 84L77 85L76 84z"/>
<path style="fill:#656565; stroke:none;" d="M81 84L82 85L81 84z"/>
<path style="fill:#969696; stroke:none;" d="M98 84L99 85L98 84z"/>
<path style="fill:#868686; stroke:none;" d="M103 84L104 85L103 84z"/>
<path style="fill:#656565; stroke:none;" d="M129 84L130 85L129 84z"/>
<path style="fill:#b5b5b5; stroke:none;" d="M134 84L135 85L134 84z"/>
<path style="fill:#565656; stroke:none;" d="M32 85L33 86L32 85z"/>
<path style="fill:#363636; stroke:none;" d="M36 85L37 86L36 85z"/>
<path style="fill:#cecece; stroke:none;" d="M37 85L38 86L37 85z"/>
<path style="fill:#656565; stroke:none;" d="M59 85L60 86L59 85z"/>
<path style="fill:#b5b5b5; stroke:none;" d="M64 85L65 86L64 85z"/>
<path style="fill:#464646; stroke:none;" d="M75 85L76 86L75 85M79 85L80 86L79 85z"/>
<path style="fill:#757575; stroke:none;" d="M100 85L101 86L100 85z"/>
<path style="fill:#a5a5a5; stroke:none;" d="M105 85L106 86L105 85z"/>
<path style="fill:#969696; stroke:none;" d="M127 85L128 86L127 85M132 85L133 86L132 85z"/>
<path style="fill:#c6c6c6; stroke:none;" d="M33 86L34 87L33 86z"/>
<path style="fill:#2d2d2d; stroke:none;" d="M34 86L35 87L34 86z"/>
<path style="fill:#656565; stroke:none;" d="M38 86L39 87L38 86z"/>
<path style="fill:#969696; stroke:none;" d="M57 86L58 87L57 86M62 86L63 87L62 86z"/>
<path style="fill:#656565; stroke:none;" d="M73 86L74 87L73 86z"/>
<path style="fill:#b5b5b5; stroke:none;" d="M78 86L79 87L78 86z"/>
<path style="fill:#565656; stroke:none;" d="M102 86L103 87L102 86z"/>
<path style="fill:#3c3c3c; stroke:none;" d="M106 86L107 87L106 86z"/>
<path style="fill:#b5b5b5; stroke:none;" d="M125 86L126 87L125 86z"/>
<path style="fill:#656565; stroke:none;" d="M130 86L131 87L130 86z"/>
<path style="fill:#969696; stroke:none;" d="M35 87L36 88L35 87z"/>
<path style="fill:#9c9c9c; stroke:none;" d="M40 87L41 88L40 87z"/>
<path style="fill:#bdbdbd; stroke:none;" d="M55 87L56 88L55 87z"/>
<path style="fill:#656565; stroke:none;" d="M60 87L61 88L60 87z"/>
<path style="fill:#969696; stroke:none;" d="M71 87L72 88L71 87M76 87L77 88L76 87z"/>
<path style="fill:#bdbdbd; stroke:none;" d="M103 87L104 88L103 87z"/>
<path style="fill:#656565; stroke:none;" d="M108 87L109 88L108 87z"/>
<path style="fill:#464646; stroke:none;" d="M124 87L125 88L124 87M128 87L129 88L128 87z"/>
<path style="fill:#656565; stroke:none;" d="M37 88L38 89L37 88z"/>
<path style="fill:#adadad; stroke:none;" d="M42 88L43 89L42 88z"/>
<path style="fill:#4e4e4e; stroke:none;" d="M54 88L55 89L54 88z"/>
<path style="fill:#464646; stroke:none;" d="M58 88L59 89L58 88z"/>
<path style="fill:#c6c6c6; stroke:none;" d="M69 88L70 89L69 88z"/>
<path style="fill:#656565; stroke:none;" d="M74 88L75 89L74 88z"/>
<path style="fill:#969696; stroke:none;" d="M105 88L106 89L105 88z"/>
<path style="fill:#9c9c9c; stroke:none;" d="M110 88L111 89L110 88z"/>
<path style="fill:#656565; stroke:none;" d="M122 88L123 89L122 88z"/>
<path style="fill:#b5b5b5; stroke:none;" d="M127 88L128 89L127 88z"/>
<path style="fill:#4e4e4e; stroke:none;" d="M39 89L40 90L39 89z"/>
<path style="fill:#555555; stroke:none;" d="M43 89L44 90L43 89z"/>
<path style="fill:#757575; stroke:none;" d="M52 89L53 90L52 89z"/>
<path style="fill:#adadad; stroke:none;" d="M57 89L58 90L57 89z"/>
<path style="fill:#565656; stroke:none;" d="M68 89L69 90L68 89z"/>
<path style="fill:#363636; stroke:none;" d="M72 89L73 90L72 89z"/>
<path style="fill:#5d5d5d; stroke:none;" d="M107 89L108 90L107 89z"/>
<path style="fill:#b5b5b5; stroke:none;" d="M112 89L113 90L112 89z"/>
<path style="fill:#969696; stroke:none;" d="M120 89L121 90L120 89M125 89L126 90L125 89z"/>
<path style="fill:#adadad; stroke:none;" d="M40 90L41 91L40 90z"/>
<path style="fill:#656565; stroke:none;" d="M45 90L46 91L45 90z"/>
<path style="fill:#969696; stroke:none;" d="M50 90L51 91L50 90z"/>
<path style="fill:#8e8e8e; stroke:none;" d="M55 90L56 91L55 90z"/>
<path style="fill:#7e7e7e; stroke:none;" d="M66 90L67 91L66 90z"/>
<path style="fill:#adadad; stroke:none;" d="M71 90L72 91L71 90z"/>
<path style="fill:#464646; stroke:none;" d="M109 90L110 91L109 90z"/>
<path style="fill:#545454; stroke:none;" d="M113 90L114 91L113 90z"/>
<path style="fill:#c6c6c6; stroke:none;" d="M118 90L119 91L118 90z"/>
<path style="fill:#656565; stroke:none;" d="M123 90L124 91L123 90z"/>
<path style="fill:#969696; stroke:none;" d="M42 91L43 92L42 91z"/>
<path style="fill:#c6c6c6; stroke:none;" d="M47.6667 91.3333L48 91.6667L48.3333 91.6667L48 91.3333L47.6667 91.3333z"/>
<path style="fill:#363636; stroke:none;" d="M49 91L50 92L49 91z"/>
<path style="fill:#656565; stroke:none;" d="M53 91L54 92L53 91z"/>
<path style="fill:#969696; stroke:none;" d="M64 91L65 92L64 91z"/>
<path style="fill:#7e7e7e; stroke:none;" d="M69 91L70 92L69 91z"/>
<path style="fill:#a5a5a5; stroke:none;" d="M110 91L111 92L110 91z"/>
<path style="fill:#656565; stroke:none;" d="M115 91L116 92L115 91z"/>
<path style="fill:#d0d0d0; stroke:none;" d="M116 91L117 92L116 91z"/>
<path style="fill:#565656; stroke:none;" d="M117 91L118 92L117 91z"/>
<path style="fill:#353535; stroke:none;" d="M121 91L122 92L121 91z"/>
<path style="fill:#5d5d5d; stroke:none;" d="M44 92L45 93L44 92z"/>
<path style="fill:#363636; stroke:none;" d="M51 92L52 93L51 92z"/>
<path style="fill:#c5c5c5; stroke:none;" d="M52 92L53 93L52 92z"/>
<path style="fill:#c6c6c6; stroke:none;" d="M62 92L63 93L62 92z"/>
<path style="fill:#363636; stroke:none;" d="M63 92L64 93L63 92z"/>
<path style="fill:#656565; stroke:none;" d="M67 92L68 93L67 92z"/>
<path style="fill:#969696; stroke:none;" d="M112 92L113 93L112 92z"/>
<path style="fill:#a5a5a5; stroke:none;" d="M120 92L121 93L120 92z"/>
<path style="fill:#444444; stroke:none;" d="M46 93L47 94L46 93z"/>
<path style="fill:#a4a4a4; stroke:none;" d="M50 93L51 94L50 93z"/>
<path style="fill:#565656; stroke:none;" d="M61 93L62 94L61 93z"/>
<path style="fill:#363636; stroke:none;" d="M65 93L66 94L65 93z"/>
<path style="fill:#c6c6c6; stroke:none;" d="M66 93L67 94L66 93z"/>
<path style="fill:#5d5d5d; stroke:none;" d="M114 93L115 94L114 93z"/>
<path style="fill:#7d7d7d; stroke:none;" d="M118 93L119 94L118 93z"/>
<path style="fill:#efefef; stroke:none;" d="M46 94L46 132L46.7222 131.222L46.75 130.694L46.9444 129.889L46.9722 128.972L47 127L47 126L47 123L47 103L47 100L47 99L46.9722 97.0278L46.9444 96.1111L46.75 95.3056L46.7222 94.7778L46 94z"/>
<path style="fill:#adadad; stroke:none;" d="M49 94L49 132L49.7222 131.222L49.75 130.694L49.9444 129.889L49.9722 128.972L50 127L50 126L50 123L50 103L50 100L50 99L49.9722 97.0278L49.9444 96.1111L49.75 95.3056L49.7222 94.7778L49 94z"/>
<path style="fill:#8e8e8e; stroke:none;" d="M59 94L60 95L59 94z"/>
<path style="fill:#a5a5a5; stroke:none;" d="M64 94L65 95L64 94z"/>
<path style="fill:#2e2e2e; stroke:none;" d="M115 94L115 132L115.722 131.222L115.75 130.694L115.944 129.889L115.972 128.972L116 127L116 126L116 123L116 103L116 100L116 99L115.972 97.0278L115.944 96.1111L115.75 95.3056L115.722 94.7778L115 94z"/>
<path style="fill:#6f6f6f; stroke:none;" d="M117 94L117 132L117.722 131.222L117.75 130.694L117.944 129.889L117.972 128.972L118 127L118 126L118 123L118 103L118 100L118 99L117.972 97.0278L117.944 96.1111L117.75 95.3056L117.722 94.7778L117 94z"/>
<path style="fill:#a7a7a7; stroke:none;" d="M57 95L58 96L57 95z"/>
<path style="fill:#7e7e7e; stroke:none;" d="M62 95L63 96L62 95z"/>
<path style="fill:#464646; stroke:none;" d="M56 96L57 97L56 96z"/>
<path style="fill:#5f5f5f; stroke:none;" d="M60 96L61 97L60 96z"/>
<path style="fill:#bdbdbd; stroke:none;" d="M107 96L108 97L107 96z"/>
<path style="fill:#3e3e3e; stroke:none;" d="M108 96L109 97L108 96z"/>
<path style="fill:#bdbdbd; stroke:none;" d="M109 96L110 97L109 96M54 97L55 98L54 97z"/>
<path style="fill:#b5b5b5; stroke:none;" d="M59 97L60 98L59 97z"/>
<path style="fill:#4e4e4e; stroke:none;" d="M107 97L107 128L107.722 127.222L107.75 126.694L107.944 125.889L107.972 124.972L108 123L108 122L108 120L108 105L108 103L108 102L107.972 100.028L107.944 99.1111L107.75 98.3056L107.722 97.7778L107 97z"/>
<path style="fill:#000000; stroke:none;" d="M108 97L108 129L108.722 128.222L108.75 127.694L108.944 126.889L108.972 125.972L109 124L109 123L109 121L109 105L109 103L109 102L108.972 100.028L108.944 99.1111L108.75 98.3056L108.722 97.7778L108 97z"/>
<path style="fill:#4e4e4e; stroke:none;" d="M109 97L109 128L109.722 127.222L109.75 126.694L109.944 125.889L109.972 124.972L110 123L110 122L110 120L110 105L110 103L110 102L109.972 100.028L109.944 99.1111L109.75 98.3056L109.722 97.7778L109 97z"/>
<path style="fill:#7e7e7e; stroke:none;" d="M54 98L55 99L54 98z"/>
<path style="fill:#969696; stroke:none;" d="M57 98L58 99L57 98z"/>
<path style="fill:#bdbdbd; stroke:none;" d="M55 99L56 100L55 99z"/>
<path style="fill:#656565; stroke:none;" d="M55 127L56 128L55 127z"/>
<path style="fill:#000000; stroke:none;" d="M55 128L55.7778 129.056L56.3056 129.389L57.1111 130.028L59 131.194L61 132.389L63 133.611L65 134.75L66 135.25L68 136.389L70 137.611L72 138.75L73 139.25L75 140.389L77 141.611L78 142.167L79 142.722L79.9444 143.139L81.5 143.722L83 144L82.6389 142.778L81.6667 141.806L80.8889 141.25L79.9722 140.75L78 139.611L76 138.389L75 137.806L73 136.611L71 135.389L69 134.25L68 133.75L66 132.611L64 131.389L62 130.25L61 129.75L60.0556 129.194L58.5 128.222L57 127L55 128z"/>
<path style="fill:#a5a5a5; stroke:none;" d="M57 127L58 128L57 127z"/>
<path style="fill:#353535; stroke:none;" d="M58 128L59 129L58 128z"/>
<path style="fill:#cecece; stroke:none;" d="M59 128L60 129L59 128z"/>
<path style="fill:#7e7e7e; stroke:none;" d="M107 128L108 129L107 128M109 128L110 129L109 128z"/>
<path style="fill:#c5c5c5; stroke:none;" d="M55 129L56 130L55 129z"/>
<path style="fill:#2d2d2d; stroke:none;" d="M56 129L57 130L56 129z"/>
<path style="fill:#656565; stroke:none;" d="M60 129L61 130L60 129z"/>
<path style="fill:#c5c5c5; stroke:none;" d="M108 129L109 130L108 129z"/>
<path style="fill:#969696; stroke:none;" d="M57 130L58 131L57 130z"/>
<path style="fill:#9c9c9c; stroke:none;" d="M62 130L63 131L62 130z"/>
<path style="fill:#5d5d5d; stroke:none;" d="M59 131L60 132L59 131z"/>
<path style="fill:#b5b5b5; stroke:none;" d="M64 131L65 132L64 131z"/>
<path style="fill:#515151; stroke:none;" d="M46 132L47 133L46 132z"/>
<path style="fill:#b5b5b5; stroke:none;" d="M50 132L51 133L50 132z"/>
<path style="fill:#4e4e4e; stroke:none;" d="M61 132L62 133L61 132z"/>
<path style="fill:#555555; stroke:none;" d="M65 132L66 133L65 132z"/>
<path style="fill:#757575; stroke:none;" d="M114 132L115 133L114 132z"/>
<path style="fill:#9c9c9c; stroke:none;" d="M118 132L119 133L118 132z"/>
<path style="fill:#7d7d7d; stroke:none;" d="M44 133L45 134L44 133z"/>
<path style="fill:#545454; stroke:none;" d="M51 133L52 134L51 133z"/>
<path style="fill:#adadad; stroke:none;" d="M62 133L63 134L62 133z"/>
<path style="fill:#656565; stroke:none;" d="M67 133L68 134L67 133z"/>
<path style="fill:#969696; stroke:none;" d="M112 133L113 134L112 133z"/>
<path style="fill:#b5b5b5; stroke:none;" d="M120 133L121 134L120 133z"/>
<path style="fill:#969696; stroke:none;" d="M42 134L43 135L42 134z"/>
<path style="fill:#a0a0a0; stroke:none;" d="M47.6667 134.333L48 134.667L48.3333 134.667L48 134.333L47.6667 134.333z"/>
<path style="fill:#656565; stroke:none;" d="M53 134L54 135L53 134z"/>
<path style="fill:#969696; stroke:none;" d="M64 134L65 135L64 134z"/>
<path style="fill:#9c9c9c; stroke:none;" d="M69 134L70 135L69 134z"/>
<path style="fill:#c5c5c5; stroke:none;" d="M110 134L111 135L110 134z"/>
<path style="fill:#363636; stroke:none;" d="M111 134L112 135L111 134z"/>
<path style="fill:#656565; stroke:none;" d="M115 134L116 135L115 134z"/>
<path style="fill:#bababa; stroke:none;" d="M116 134L117 135L116 134z"/>
<path style="fill:#464646; stroke:none;" d="M117 134L118 135L117 134z"/>
<path style="fill:#555555; stroke:none;" d="M121 134L122 135L121 134z"/>
<path style="fill:#c6c6c6; stroke:none;" d="M40 135L41 136L40 135z"/>
<path style="fill:#363636; stroke:none;" d="M41 135L42 136L41 135z"/>
<path style="fill:#656565; stroke:none;" d="M45 135L46 136L45 135z"/>
<path style="fill:#969696; stroke:none;" d="M50 135L51 136L50 135z"/>
<path style="fill:#9c9c9c; stroke:none;" d="M55 135L56 136L55 135z"/>
<path style="fill:#5d5d5d; stroke:none;" d="M66 135L67 136L66 135z"/>
<path style="fill:#b5b5b5; stroke:none;" d="M71 135L72 136L71 135z"/>
<path style="fill:#565656; stroke:none;" d="M109 135L110 136L109 135z"/>
<path style="fill:#363636; stroke:none;" d="M113 135L114 136L113 135z"/>
<path style="fill:#c6c6c6; stroke:none;" d="M114 135L115 136L114 135z"/>
<path style="fill:#a4a4a4; stroke:none;" d="M118 135L119 136L118 135z"/>
<path style="fill:#656565; stroke:none;" d="M123 135L124 136L123 135z"/>
<path style="fill:#565656; stroke:none;" d="M39 136L40 137L39 136z"/>
<path style="fill:#363636; stroke:none;" d="M43 136L44 137L43 136z"/>
<path style="fill:#c6c6c6; stroke:none;" d="M44 136L45 137L44 136z"/>
<path style="fill:#5d5d5d; stroke:none;" d="M52 136L53 137L52 136z"/>
<path style="fill:#bdbdbd; stroke:none;" d="M57 136L58 137L57 136z"/>
<path style="fill:#464646; stroke:none;" d="M68 136L69 137L68 136z"/>
<path style="fill:#5d5d5d; stroke:none;" d="M72 136L73 137L72 136z"/>
<path style="fill:#7e7e7e; stroke:none;" d="M107 136L108 137L107 136z"/>
<path style="fill:#a5a5a5; stroke:none;" d="M112 136L113 137L112 136z"/>
<path style="fill:#969696; stroke:none;" d="M120 136L121 137L120 136z"/>
<path style="fill:#9c9c9c; stroke:none;" d="M125 136L126 137L125 136z"/>
<path style="fill:#8e8e8e; stroke:none;" d="M37 137L38 138L37 137z"/>
<path style="fill:#a5a5a5; stroke:none;" d="M42 137L43 138L42 137z"/>
<path style="fill:#3e3e3e; stroke:none;" d="M54 137L55 138L54 137z"/>
<path style="fill:#656565; stroke:none;" d="M58 137L59 138L58 137z"/>
<path style="fill:#a5a5a5; stroke:none;" d="M69 137L70 138L69 137z"/>
<path style="fill:#6d6d6d; stroke:none;" d="M74 137L75 138L74 137z"/>
<path style="fill:#969696; stroke:none;" d="M105 137L106 138L105 137z"/>
<path style="fill:#7e7e7e; stroke:none;" d="M110 137L111 138L110 137z"/>
<path style="fill:#5d5d5d; stroke:none;" d="M122 137L123 138L122 137z"/>
<path style="fill:#2d2d2d; stroke:none;" d="M126 137L127 138L126 137z"/>
<path style="fill:#cecece; stroke:none;" d="M127 137L128 138L127 137z"/>
<path style="fill:#a7a7a7; stroke:none;" d="M35 138L36 139L35 138z"/>
<path style="fill:#6d6d6d; stroke:none;" d="M40 138L41 139L40 138z"/>
<path style="fill:#9c9c9c; stroke:none;" d="M55 138L56 139L55 138z"/>
<path style="fill:#868686; stroke:none;" d="M60 138L61 139L60 138z"/>
<path style="fill:#969696; stroke:none;" d="M71 138L72 139L71 138z"/>
<path style="fill:#a5a5a5; stroke:none;" d="M76 138L77 139L76 138z"/>
<path style="fill:#cecece; stroke:none;" d="M103 138L104 139L103 138z"/>
<path style="fill:#3e3e3e; stroke:none;" d="M104 138L105 139L104 138z"/>
<path style="fill:#656565; stroke:none;" d="M108 138L109 139L108 138z"/>
<path style="fill:#cecece; stroke:none;" d="M123 138L124 139L123 138z"/>
<path style="fill:#363636; stroke:none;" d="M124 138L125 139L124 138z"/>
<path style="fill:#656565; stroke:none;" d="M128 138L129 139L128 138z"/>
<path style="fill:#464646; stroke:none;" d="M34 139L35 140L34 139z"/>
<path style="fill:#5f5f5f; stroke:none;" d="M38 139L39 140L38 139z"/>
<path style="fill:#868686; stroke:none;" d="M57 139L58 140L57 139z"/>
<path style="fill:#a5a5a5; stroke:none;" d="M62 139L63 140L62 139z"/>
<path style="fill:#565656; stroke:none;" d="M73 139L74 140L73 139z"/>
<path style="fill:#363636; stroke:none;" d="M77 139L78 140L77 139z"/>
<path style="fill:#cecece; stroke:none;" d="M78 139L79 140L78 139z"/>
<path style="fill:#5f5f5f; stroke:none;" d="M102 139L103 140L102 139z"/>
<path style="fill:#2d2d2d; stroke:none;" d="M106 139L107 140L106 139z"/>
<path style="fill:#bdbdbd; stroke:none;" d="M107 139L108 140L107 139z"/>
<path style="fill:#969696; stroke:none;" d="M125 139L126 140L125 139z"/>
<path style="fill:#868686; stroke:none;" d="M130 139L131 140L130 139z"/>
<path style="fill:#656565; stroke:none;" d="M32 140L33 141L32 140z"/>
<path style="fill:#b5b5b5; stroke:none;" d="M37 140L38 141L37 140z"/>
<path style="fill:#565656; stroke:none;" d="M59 140L60 141L59 140z"/>
<path style="fill:#363636; stroke:none;" d="M63 140L64 141L63 140z"/>
<path style="fill:#cecece; stroke:none;" d="M64 140L65 141L64 140z"/>
<path style="fill:#c6c6c6; stroke:none;" d="M74 140L75 141L74 140z"/>
<path style="fill:#2d2d2d; stroke:none;" d="M75 140L76 141L75 140z"/>
<path style="fill:#656565; stroke:none;" d="M79 140L80 141L79 140z"/>
<path style="fill:#969696; stroke:none;" d="M100 140L101 141L100 140z"/>
<path style="fill:#9e9e9e; stroke:none;" d="M105 140L106 141L105 140z"/>
<path style="fill:#757575; stroke:none;" d="M127 140L128 141L127 140z"/>
<path style="fill:#a5a5a5; stroke:none;" d="M132 140L133 141L132 140z"/>
<path style="fill:#969696; stroke:none;" d="M30 141L31 142L30 141M35 141L36 142L35 141z"/>
<path style="fill:#c6c6c6; stroke:none;" d="M60 141L61 142L60 141z"/>
<path style="fill:#2d2d2d; stroke:none;" d="M61 141L62 142L61 141z"/>
<path style="fill:#656565; stroke:none;" d="M65 141L66 142L65 141z"/>
<path style="fill:#969696; stroke:none;" d="M76 141L77 142L76 141z"/>
<path style="fill:#868686; stroke:none;" d="M81 141L82 142L81 141z"/>
<path style="fill:#b5b5b5; stroke:none;" d="M98 141L99 142L98 141z"/>
<path style="fill:#656565; stroke:none;" d="M103 141L104 142L103 141z"/>
<path style="fill:#565656; stroke:none;" d="M129 141L130 142L129 141z"/>
<path style="fill:#363636; stroke:none;" d="M133 141L134 142L133 141z"/>
<path style="fill:#cecece; stroke:none;" d="M134 141L135 142L134 141z"/>
<path style="fill:#b5b5b5; stroke:none;" d="M28 142L29 143L28 142z"/>
<path style="fill:#656565; stroke:none;" d="M33 142L34 143L33 142z"/>
<path style="fill:#969696; stroke:none;" d="M62 142L63 143L62 142z"/>
<path style="fill:#8e8e8e; stroke:none;" d="M67 142L68 143L67 142z"/>
<path style="fill:#757575; stroke:none;" d="M78 142L79 143L78 142z"/>
<path style="fill:#c6c6c6; stroke:none;" d="M83 142L84 143L83 142z"/>
<path style="fill:#464646; stroke:none;" d="M97 142L98 143L97 142M101 142L102 143L101 142z"/>
<path style="fill:#c6c6c6; stroke:none;" d="M130 142L131 143L130 142z"/>
<path style="fill:#2d2d2d; stroke:none;" d="M131 142L132 143L131 142z"/>
<path style="fill:#656565; stroke:none;" d="M135 142L136 143L135 142z"/>
<path style="fill:#464646; stroke:none;" d="M27 143L28 144L27 143M31 143L32 144L31 143z"/>
<path style="fill:#757575; stroke:none;" d="M64 143L65 144L64 143z"/>
<path style="fill:#adadad; stroke:none;" d="M69 143L70 144L69 143z"/>
<path style="fill:#565656; stroke:none;" d="M80 143L81 144L80 143z"/>
<path style="fill:#353535; stroke:none;" d="M83 143L84 144L83 143z"/>
<path style="fill:#656565; stroke:none;" d="M95 143L96 144L95 143z"/>
<path style="fill:#b5b5b5; stroke:none;" d="M100 143L101 144L100 143z"/>
<path style="fill:#969696; stroke:none;" d="M132 143L133 144L132 143z"/>
<path style="fill:#9c9c9c; stroke:none;" d="M137 143L138 144L137 143z"/>
<path style="fill:#e2e2e2; stroke:none;" d="M8 144L8.72222 144.722L9.25 144.75L11 145L10.2778 144.278L9.75 144.25L8 144M17 144L17.7222 144.722L18.25 144.75L20 145L19.2778 144.278L18.75 144.25L17 144z"/>
<path style="fill:#6d6d6d; stroke:none;" d="M25 144L26 145L25 144z"/>
<path style="fill:#b5b5b5; stroke:none;" d="M30 144L31 145L30 144z"/>
<path style="fill:#565656; stroke:none;" d="M66 144L67 145L66 144z"/>
<path style="fill:#444444; stroke:none;" d="M70 144L71 145L70 144z"/>
<path style="fill:#c6c6c6; stroke:none;" d="M81 144L82 145L81 144z"/>
<path style="fill:#464646; stroke:none;" d="M82 144L83 145L82 144z"/>
<path style="fill:#9e9e9e; stroke:none;" d="M83 144L84 145L83 144z"/>
<path style="fill:#969696; stroke:none;" d="M93 144L94 145L93 144M98 144L99 145L98 144z"/>
<path style="fill:#5d5d5d; stroke:none;" d="M134 144L135 145L134 144z"/>
<path style="fill:#b5b5b5; stroke:none;" d="M139 144L140 145L139 144z"/>
<path style="fill:#e2e2e2; stroke:none;" d="M144 144L144.778 144.722L145.25 144.75L146.056 144.944L148 145L147.222 144.278L146.75 144.25L145.944 144.056L144 144M153 144L153.778 144.722L154.25 144.75L155.056 144.944L157 145L156.222 144.278L155.75 144.25L154.944 144.056L153 144z"/>
<path style="fill:#d7d7d7; stroke:none;" d="M7 145L7 160L7.72222 159.222L7.75 158.694L7.94444 157.889L7.97222 156.972L8 155L8 154L8 152L8 150L8 149L7.97222 148.028L7.94444 147.111L7.75 146.306L7.72222 145.778L7 145z"/>
<path style="fill:#666666; stroke:none;" d="M8 145L8 160L11 160L11 153L17 153L17 160L20 160L20 145L17 145L17 151L11 151L11 145L8 145z"/>
<path style="fill:#cecece; stroke:none;" d="M11 145L11 151L11.7222 150.222L11.75 149.694L11.9444 148.889L11.9444 147.111L11.75 146.306L11.7222 145.778L11 145M16 145L16 151L16.7222 150.222L16.75 149.694L16.9444 148.889L16.9444 147.111L16.75 146.306L16.7222 145.778L16 145M20 145L20 160L20.7222 159.222L20.75 158.694L20.9444 157.889L20.9722 156.972L21 155L21 154L21 152L21 150L21 149L20.9722 148.028L20.9444 147.111L20.75 146.306L20.7222 145.778L20 145z"/>
<path style="fill:#969696; stroke:none;" d="M23 145L24 146L23 145M28 145L29 146L28 145z"/>
<path style="fill:#b5b5b5; stroke:none;" d="M67 145L68 146L67 145z"/>
<path style="fill:#656565; stroke:none;" d="M72 145L73 146L72 145z"/>
<path style="fill:#c6c6c6; stroke:none;" d="M91 145L92 146L91 145z"/>
<path style="fill:#656565; stroke:none;" d="M96 145L97 146L96 145z"/>
<path style="fill:#4e4e4e; stroke:none;" d="M136 145L137 146L136 145z"/>
<path style="fill:#545454; stroke:none;" d="M140 145L141 146L140 145z"/>
<path style="fill:#8b8b8b; stroke:none;" d="M144 145L144 160L144.722 159.222L144.75 158.694L144.944 157.889L144.972 156.972L145 156L145 155L145 153L145 151L145 150L144.972 148.028L144.944 147.111L144.75 146.306L144.722 145.778L144 145z"/>
<path style="fill:#666666; stroke:none;" d="M145 145L145 160L147 160L147 153L154 153L154 160L156 160L156 145L154 145L154 151L147 151L147 145L145 145z"/>
<path style="fill:#828282; stroke:none;" d="M147 145L147 151L147.722 150.222L147.75 149.694L147.944 148.889L147.944 147.111L147.75 146.306L147.722 145.778L147 145M153 145L153 151L153.722 150.222L153.75 149.694L153.944 148.889L153.944 147.111L153.75 146.306L153.722 145.778L153 145z"/>
<path style="fill:#8b8b8b; stroke:none;" d="M156 145L156 160L156.722 159.222L156.75 158.694L156.944 157.889L156.972 156.972L157 155L157 154L157 152L157 150L157 149L156.972 148.028L156.944 147.111L156.75 146.306L156.722 145.778L156 145z"/>
<path style="fill:#868686; stroke:none;" d="M22.3333 146.667L22.3333 147.333L22.6667 147.333L22.6667 146.667L22.3333 146.667z"/>
<path style="fill:#656565; stroke:none;" d="M26 146L27 147L26 146z"/>
<path style="fill:#969696; stroke:none;" d="M69 146L70 147L69 146z"/>
<path style="fill:#9c9c9c; stroke:none;" d="M74 146L75 147L74 146z"/>
<path style="fill:#565656; stroke:none;" d="M90 146L91 147L90 146z"/>
<path style="fill:#363636; stroke:none;" d="M94 146L95 147L94 146z"/>
<path style="fill:#a5a5a5; stroke:none;" d="M137 146L138 147L137 146z"/>
<path style="fill:#e6e6e6; stroke:none;" d="M142.333 146.667L142.333 147L142.667 147.333L142.667 147L142.333 146.667z"/>
<path style="fill:#353535; stroke:none;" d="M24 147L25 148L24 147z"/>
<path style="fill:#5d5d5d; stroke:none;" d="M71 147L72 148L71 147z"/>
<path style="fill:#b5b5b5; stroke:none;" d="M76 147L77 148L76 147z"/>
<path style="fill:#7e7e7e; stroke:none;" d="M88 147L89 148L88 147z"/>
<path style="fill:#adadad; stroke:none;" d="M93 147L94 148L93 147z"/>
<path style="fill:#969696; stroke:none;" d="M139 147L140 148L139 147z"/>
<path style="fill:#464646; stroke:none;" d="M73 148L74 149L73 148z"/>
<path style="fill:#555555; stroke:none;" d="M77 148L78 149L77 148z"/>
<path style="fill:#969696; stroke:none;" d="M86 148L87 149L86 148z"/>
<path style="fill:#868686; stroke:none;" d="M91 148L92 149L91 148z"/>
<path style="fill:#a5a5a5; stroke:none;" d="M74 149L75 150L74 149z"/>
<path style="fill:#656565; stroke:none;" d="M79 149L80 150L79 149z"/>
<path style="fill:#c6c6c6; stroke:none;" d="M84 149L85 150L84 149z"/>
<path style="fill:#363636; stroke:none;" d="M85 149L86 150L85 149z"/>
<path style="fill:#656565; stroke:none;" d="M89 149L90 150L89 149z"/>
<path style="fill:#969696; stroke:none;" d="M76 150L77 151L76 150z"/>
<path style="fill:#9c9c9c; stroke:none;" d="M81 150L82 151L81 150z"/>
<path style="fill:#565656; stroke:none;" d="M83 150L84 151L83 150z"/>
<path style="fill:#363636; stroke:none;" d="M87 150L88 151L87 150z"/>
<path style="fill:#c5c5c5; stroke:none;" d="M88 150L89 151L88 150z"/>
<path style="fill:#5d5d5d; stroke:none;" d="M78 151L79 152L78 151z"/>
<path style="fill:#a5a5a5; stroke:none;" d="M86 151L87 152L86 151z"/>
<path style="fill:#cecece; stroke:none;" d="M79 152L80 153L79 152z"/>
<path style="fill:#3e3e3e; stroke:none;" d="M80 152L81 153L80 152z"/>
<path style="fill:#7e7e7e; stroke:none;" d="M84 152L85 153L84 152z"/>
<path style="fill:#d7d7d7; stroke:none;" d="M11 153L11 160L11.7222 159.222L11.75 158.694L11.9444 157.889L11.9722 157.028L12 156.056L12 154L16 154L16 160L16.7222 159.222L16.75 158.694L16.9444 157.889L16.9722 156.972L17 156.056L17 155.056L17 153L11 153z"/>
<path style="fill:#8c8c8c; stroke:none;" d="M83 153L83 191L83.7222 190.222L83.75 189.694L83.9444 188.889L83.9722 187.972L84 186L84 185L84 182L84 162L84 159L84 158L83.9722 156.028L83.9444 155.111L83.75 154.306L83.7222 153.778L83 153z"/>
<path style="fill:#828282; stroke:none;" d="M147 153L147 160L147.722 159.222L147.75 158.694L147.944 157.889L147.972 156.972L147.944 155.111L147.75 154.306L147.722 153.778L147 153z"/>
<path style="fill:#d7d7d7; stroke:none;" d="M148 153L148.778 153.722L149.306 153.75L150.056 153.944L150.972 153.972L153 154L152.222 153.278L151.694 153.25L150.944 153.056L150.028 153.028L148 153z"/>
<path style="fill:#828282; stroke:none;" d="M153 153L153 160L153.722 159.222L153.75 158.694L153.944 157.889L153.972 156.972L153.944 155.111L153.75 154.306L153.722 153.778L153 153z"/>
<path style="fill:#0d0d0d; stroke:none;" d="M81 154L81 191L81.7222 190.222L81.75 189.694L81.9444 188.889L81.9722 187.972L82 186L82 185L82 182L82 163L82 160L82 159L81.9722 157.028L81.9444 156.111L81.75 155.306L81.7222 154.778L81 154z"/>
<path style="fill:#828282; stroke:none;" d="M144 184L144 199L144.722 198.222L144.75 197.694L144.944 196.889L144.972 195.972L145 195L145 193L145 192L145 190L145 185L147 185L147 190L147.722 189.222L147.75 188.694L147.944 187.889L147.972 187.028L148 186.056L148 184L144 184z"/>
<path style="fill:#8b8b8b; stroke:none;" d="M153 184L153 190L153.722 189.222L153.75 188.694L153.944 187.944L153.972 187.028L154 185L156 185L156 199L156.722 198.222L156.75 197.694L156.944 196.889L156.972 195.972L157 195L157 193L157 192L157 190L157 184L153 184z"/>
<path style="fill:#666666; stroke:none;" d="M145 185L145 199L147 199L147 193L148 192L153 192L154 193L154 199L156 199L156 185L154 185L154 190L153 191L148 191L147 190L147 185L145 185z"/>
<path style="fill:#b3b3b3; stroke:none;" d="M148 190L148.778 190.722L149.306 190.75L150.056 190.944L150.972 190.972L153 191L152.222 190.278L151.694 190.25L150.944 190.056L150.028 190.028L148 190z"/>
<path style="fill:#7d7d7d; stroke:none;" d="M80 191L81 192L80 191z"/>
<path style="fill:#b5b5b5; stroke:none;" d="M84 191L85 192L84 191z"/>
<path style="fill:#969696; stroke:none;" d="M78 192L79 193L78 192z"/>
<path style="fill:#5c5c5c; stroke:none;" d="M85 192L86 193L85 192z"/>
<path style="fill:#9f9f9f; stroke:none;" d="M148 192L148.778 192.722L149.306 192.75L150.056 192.944L150.972 192.972L153 193L152.222 192.278L151.694 192.25L150.944 192.056L150.028 192.028L148 192z"/>
<path style="fill:#c5c5c5; stroke:none;" d="M76 193L77 194L76 193z"/>
<path style="fill:#363636; stroke:none;" d="M77 193L78 194L77 193z"/>
<path style="fill:#757575; stroke:none;" d="M87 193L88 194L87 193z"/>
<path style="fill:#828282; stroke:none;" d="M147 193L147 199L147.722 198.222L147.75 197.694L147.944 196.889L147.944 195.111L147.75 194.306L147.722 193.778L147 193M153 193L153 199L153.722 198.222L153.75 197.694L153.944 196.889L153.944 195.111L153.75 194.306L153.722 193.778L153 193z"/>
<path style="fill:#565656; stroke:none;" d="M75 194L76 195L75 194z"/>
<path style="fill:#363636; stroke:none;" d="M79 194L80 195L79 194z"/>
<path style="fill:#c6c6c6; stroke:none;" d="M80 194L81 195L80 194z"/>
<path style="fill:#0d0d0d; stroke:none;" d="M81 194L81 221L81.7222 220.222L81.75 219.694L81.9444 218.889L81.9722 217.972L82 217L82 216L82 214L82 201L82 199L82 198L81.9722 197.028L81.9444 196.111L81.75 195.306L81.7222 194.778L81 194z"/>
<path style="fill:#8c8c8c; stroke:none;" d="M83 194L83 221L83.7222 220.222L83.75 219.694L83.9444 218.889L83.9722 217.972L84 216L84 215L84 212L84 203L84 201L84 200L84.0833 198L84.2222 197.056L84.4167 196.056L85 194L83 194z"/>
<path style="fill:#a5a5a5; stroke:none;" d="M89 194L90 195L89 194z"/>
<path style="fill:#969696; stroke:none;" d="M73 195L74 196L73 195z"/>
<path style="fill:#a5a5a5; stroke:none;" d="M78 195L79 196L78 195z"/>
<path style="fill:#565656; stroke:none;" d="M86 195L87 196L86 195z"/>
<path style="fill:#363636; stroke:none;" d="M90 195L91 196L90 195z"/>
<path style="fill:#cecece; stroke:none;" d="M91 195L92 196L91 195z"/>
<path style="fill:#b5b5b5; stroke:none;" d="M71 196L72 197L71 196z"/>
<path style="fill:#6d6d6d; stroke:none;" d="M76 196L77 197L76 196z"/>
<path style="fill:#c6c6c6; stroke:none;" d="M87 196L88 197L87 196z"/>
<path style="fill:#2d2d2d; stroke:none;" d="M88 196L89 197L88 196z"/>
<path style="fill:#656565; stroke:none;" d="M92 196L93 197L92 196z"/>
<path style="fill:#464646; stroke:none;" d="M140.667 196.333L141 196.667L141.333 196.667L141 196.333L140.667 196.333M70 197L71 198L70 197z"/>
<path style="fill:#4e4e4e; stroke:none;" d="M74 197L75 198L74 197z"/>
<path style="fill:#969696; stroke:none;" d="M89 197L90 198L89 197z"/>
<path style="fill:#868686; stroke:none;" d="M94 197L95 198L94 197z"/>
<path style="fill:#656565; stroke:none;" d="M138 197L139 198L138 197M68 198L69 199L68 198z"/>
<path style="fill:#b5b5b5; stroke:none;" d="M73 198L74 199L73 198z"/>
<path style="fill:#757575; stroke:none;" d="M91 198L92 199L91 198z"/>
<path style="fill:#a5a5a5; stroke:none;" d="M96 198L97 199L96 198z"/>
<path style="fill:#969696; stroke:none;" d="M136 198L137 199L136 198z"/>
<path style="fill:#a7a7a7; stroke:none;" d="M141 198L142 199L141 198z"/>
<path style="fill:#969696; stroke:none;" d="M66 199L67 200L66 199M71 199L72 200L71 199z"/>
<path style="fill:#565656; stroke:none;" d="M93 199L94 200L93 199z"/>
<path style="fill:#3c3c3c; stroke:none;" d="M97 199L98 200L97 199z"/>
<path style="fill:#b5b5b5; stroke:none;" d="M134 199L135 200L134 199z"/>
<path style="fill:#656565; stroke:none;" d="M139 199L140 200L139 199z"/>
<path style="fill:#bababa; stroke:none;" d="M144 199L144.778 199.722L145.25 199.75L146.056 199.944L148 200L147.222 199.278L146.75 199.25L145.944 199.056L144 199M153 199L153.778 199.722L154.25 199.75L155.056 199.944L157 200L156.222 199.278L155.75 199.25L154.944 199.056L153 199z"/>
<path style="fill:#bdbdbd; stroke:none;" d="M64 200L65 201L64 200z"/>
<path style="fill:#656565; stroke:none;" d="M69 200L70 201L69 200z"/>
<path style="fill:#bdbdbd; stroke:none;" d="M94 200L95 201L94 200z"/>
<path style="fill:#656565; stroke:none;" d="M99 200L100 201L99 200z"/>
<path style="fill:#464646; stroke:none;" d="M133 200L134 201L133 200M137 200L138 201L137 200z"/>
<path style="fill:#4e4e4e; stroke:none;" d="M63 201L64 202L63 201z"/>
<path style="fill:#464646; stroke:none;" d="M67 201L68 202L67 201z"/>
<path style="fill:#969696; stroke:none;" d="M96 201L97 202L96 201z"/>
<path style="fill:#9c9c9c; stroke:none;" d="M101 201L102 202L101 201z"/>
<path style="fill:#656565; stroke:none;" d="M131 201L132 202L131 201z"/>
<path style="fill:#b5b5b5; stroke:none;" d="M136 201L137 202L136 201z"/>
<path style="fill:#757575; stroke:none;" d="M61 202L62 203L61 202z"/>
<path style="fill:#adadad; stroke:none;" d="M66 202L67 203L66 202z"/>
<path style="fill:#5d5d5d; stroke:none;" d="M98 202L99 203L98 202z"/>
<path style="fill:#b5b5b5; stroke:none;" d="M103 202L104 203L103 202z"/>
<path style="fill:#969696; stroke:none;" d="M129 202L130 203L129 202M134 202L135 203L134 202M59 203L60 204L59 203z"/>
<path style="fill:#8e8e8e; stroke:none;" d="M64 203L65 204L64 203z"/>
<path style="fill:#464646; stroke:none;" d="M100 203L101 204L100 203z"/>
<path style="fill:#555555; stroke:none;" d="M104 203L105 204L104 203z"/>
<path style="fill:#c6c6c6; stroke:none;" d="M127 203L128 204L127 203z"/>
<path style="fill:#656565; stroke:none;" d="M132 203L133 204L132 203z"/>
<path style="fill:#ffadad; stroke:none;" d="M183 203L183.778 203.722L184.25 203.75L185.056 203.944L187 204L186.222 203.278L185.75 203.25L184.944 203.056L183 203z"/>
<path style="fill:#ebebeb; stroke:none;" d="M41 204L41 219L41.7222 218.222L41.75 217.694L41.9444 216.889L41.9722 215.972L42 214L42 213L42 211L42 209L42 208L41.9722 207.028L41.9444 206.111L41.75 205.306L41.7222 204.778L41 204z"/>
<path style="fill:#666666; stroke:none;" d="M42 204L42 219L45 219L45 212L51 212L51 219L54 219L54 204L51 204L51 211L45 211L45 204L42 204z"/>
<path style="fill:#bababa; stroke:none;" d="M45 204L45 210L45.7222 209.222L45.75 208.694L45.9444 207.889L45.9444 206.111L45.75 205.306L45.7222 204.778L45 204z"/>
<path style="fill:#e2e2e2; stroke:none;" d="M50 204L50 210L50.7222 209.222L50.75 208.694L50.9444 207.889L50.9444 206.111L50.75 205.306L50.7222 204.778L50 204z"/>
<path style="fill:#c3c3c3; stroke:none;" d="M54 204L54 219L54.7222 218.222L54.75 217.694L54.9444 216.889L54.9722 215.972L55 215L55 214L55 212L55 210L55 209L54.9722 207.028L54.9444 206.111L54.75 205.306L54.7222 204.778L54 204z"/>
<path style="fill:#c6c6c6; stroke:none;" d="M57 204L58 205L57 204z"/>
<path style="fill:#363636; stroke:none;" d="M58 204L59 205L58 204z"/>
<path style="fill:#656565; stroke:none;" d="M62 204L63 205L62 204z"/>
<path style="fill:#a5a5a5; stroke:none;" d="M101 204L102 205L101 204z"/>
<path style="fill:#656565; stroke:none;" d="M106 204L107 205L106 204z"/>
<path style="fill:#565656; stroke:none;" d="M126 204L127 205L126 204z"/>
<path style="fill:#363636; stroke:none;" d="M130 204L131 205L130 204z"/>
<path style="fill:#ffc5c5; stroke:none;" d="M180 204L181 205L180 204z"/>
<path style="fill:#ff5656; stroke:none;" d="M181 204L182 205L181 204z"/>
<path style="fill:#ff0000; stroke:none;" d="M182.028 204.5L180.306 205.5L179.111 207.083L178.417 209L178.083 211L178.083 213L178.25 214L178.944 215.972L179.5 216.889L181.083 218.278L182.028 218.667L183 218.889L185 218.972L186.972 218.667L187.917 218.278L189.5 216.889L190.5 215L190.917 213L190.972 211L190.917 210L190.5 208L190.056 207.028L189.5 206.111L187.917 204.722L186.972 204.333L186 204.111L184 204.083L183 204.25L182.028 204.5z"/>
<path style="fill:#ffadad; stroke:none;" d="M188 204L189 205L188 204z"/>
<path style="fill:#bdbdbd; stroke:none;" d="M56 205L57 206L56 205z"/>
<path style="fill:#363636; stroke:none;" d="M60 205L61 206L60 205z"/>
<path style="fill:#c6c6c6; stroke:none;" d="M61 205L62 206L61 205z"/>
<path style="fill:#969696; stroke:none;" d="M103 205L104 206L103 205z"/>
<path style="fill:#9c9c9c; stroke:none;" d="M108 205L109 206L108 205z"/>
<path style="fill:#7e7e7e; stroke:none;" d="M124 205L125 206L124 205z"/>
<path style="fill:#a5a5a5; stroke:none;" d="M129 205L130 206L129 205z"/>
<path style="fill:#ffafaf; stroke:none;" d="M179 205L180 206L179 205z"/>
<path style="fill:#ff7575; stroke:none;" d="M189 205L190 206L189 205z"/>
<path style="fill:#868686; stroke:none;" d="M56 206L57 207L56 206z"/>
<path style="fill:#a5a5a5; stroke:none;" d="M59 206L60 207L59 206z"/>
<path style="fill:#5d5d5d; stroke:none;" d="M105 206L106 207L105 206z"/>
<path style="fill:#bdbdbd; stroke:none;" d="M110 206L111 207L110 206z"/>
<path style="fill:#969696; stroke:none;" d="M122 206L123 207L122 206z"/>
<path style="fill:#7e7e7e; stroke:none;" d="M127 206L128 207L127 206z"/>
<path style="fill:#ffbdbd; stroke:none;" d="M183 206L183.722 206.722L184.25 206.75L186 207L185.278 206.278L184.75 206.25L183 206z"/>
<path style="fill:#ffb5b5; stroke:none;" d="M190 206L191 207L190 206z"/>
<path style="fill:#c5c5c5; stroke:none;" d="M57 207L58 208L57 207z"/>
<path style="fill:#464646; stroke:none;" d="M107 207L108 208L107 207z"/>
<path style="fill:#5d5d5d; stroke:none;" d="M111 207L112 208L111 207z"/>
<path style="fill:#c6c6c6; stroke:none;" d="M120 207L121 208L120 207z"/>
<path style="fill:#363636; stroke:none;" d="M121 207L122 208L121 207z"/>
<path style="fill:#656565; stroke:none;" d="M125 207L126 208L125 207z"/>
<path style="fill:#ff8e8e; stroke:none;" d="M178 207L179 208L178 207z"/>
<path style="fill:#ffc5c5; stroke:none;" d="M182 207L183 208L182 207z"/>
<path style="fill:#ffffff; stroke:none;" d="M183 207L182 208L182 216L187 216L187.083 214.5L187.194 213.944L187.389 212L187.389 211L187.194 209.056L187.083 208.5L187 207L183 207z"/>
<path style="fill:#ff3e3e; stroke:none;" d="M190 207L191 208L190 207z"/>
<path style="fill:#9c9c9c; stroke:none;" d="M108 208L109 209L108 208z"/>
<path style="fill:#868686; stroke:none;" d="M113 208L114 209L113 208z"/>
<path style="fill:#565656; stroke:none;" d="M119 208L120 209L119 208z"/>
<path style="fill:#363636; stroke:none;" d="M123 208L124 209L123 208z"/>
<path style="fill:#c6c6c6; stroke:none;" d="M124 208L125 209L124 208z"/>
<path style="fill:#ff3636; stroke:none;" d="M178 208L179 209L178 208z"/>
<path style="fill:#ff3e3e; stroke:none;" d="M181 208L182 209L181 208z"/>
<path style="fill:#ff8686; stroke:none;" d="M187 208L188 209L187 208z"/>
<path style="fill:#868686; stroke:none;" d="M110 209L111 210L110 209z"/>
<path style="fill:#a5a5a5; stroke:none;" d="M115 209L116 210L115 209z"/>
<path style="fill:#8e8e8e; stroke:none;" d="M117 209L118 210L117 209z"/>
<path style="fill:#a4a4a4; stroke:none;" d="M122 209L123 210L122 209z"/>
<path style="fill:#ff9d9d; stroke:none;" d="M181 209L181 214L181.722 213.222L181.75 212.694L181.917 211.083L181.75 210.306L181.722 209.778L181 209z"/>
<path style="fill:#ffdede; stroke:none;" d="M187.333 209.667L187.333 210.333L187.667 210.333L187.667 210L187.333 209.667z"/>
<path style="fill:#ff9494; stroke:none;" d="M191 209L191 214L191.722 213.222L191.75 212.694L191.917 211.083L191.75 210.306L191.722 209.778L191 209z"/>
<path style="fill:#828282; stroke:none;" d="M45 210L45.7778 210.722L46.3056 210.75L47.1111 210.944L47.9722 210.972L48.9444 211L51 211L50.2222 210.278L49.6944 210.25L48.8889 210.056L48.0278 210.028L47.0556 210L45 210z"/>
<path style="fill:#565656; stroke:none;" d="M112 210L113 211L112 210z"/>
<path style="fill:#6d6d6d; stroke:none;" d="M120 210L121 211L120 210z"/>
<path style="fill:#ffc5c5; stroke:none;" d="M177 210L177 213L177.694 212.25L177.694 211.194L177.694 210.75L177 210z"/>
<path style="fill:#c6c6c6; stroke:none;" d="M113 211L114 212L113 211z"/>
<path style="fill:#2d2d2d; stroke:none;" d="M114 211L115 212L114 211z"/>
<path style="fill:#c1c1c1; stroke:none;" d="M119 211L120 212L119 211z"/>
<path style="fill:#c4c4c4; stroke:none;" d="M45 212L45 219L45.7222 218.222L45.75 217.694L45.9444 216.889L45.9722 216.028L46 215.056L46 213L51 213L50.2222 212.278L49.6944 212.25L48.8889 212.056L48.0278 212.028L47.0556 212L45 212z"/>
<path style="fill:#8e8e8e; stroke:none;" d="M120 212L121 213L120 212z"/>
<path style="fill:#cecece; stroke:none;" d="M172 212L173 213L172 212z"/>
<path style="fill:#ffbdbd; stroke:none;" d="M187.333 212.667L187.333 213.333L187.667 213.333L187.667 213L187.333 212.667z"/>
<path style="fill:#e2e2e2; stroke:none;" d="M50 213L50 219L50.7222 218.222L50.75 217.694L50.9444 216.889L50.9444 215.111L50.75 214.306L50.7222 213.778L50 213z"/>
<path style="fill:#2e2e2e; stroke:none;" d="M115 213L115 241L115.722 240.222L115.75 239.694L115.944 238.889L115.972 237.972L116 237L116 236L116 234L116 221L116 219L116 218L115.972 216.028L115.944 215.111L115.75 214.306L115.722 213.778L115 213z"/>
<path style="fill:#333333; stroke:none;" d="M117 213L118 214L117 213z"/>
<path style="fill:#adadad; stroke:none;" d="M122 213L123 214L122 213z"/>
<path style="fill:#c5c5c5; stroke:none;" d="M170 213L171 214L170 213z"/>
<path style="fill:#363636; stroke:none;" d="M171 213L172 214L171 213z"/>
<path style="fill:#545454; stroke:none;" d="M173 213L174 214L173 213z"/>
<path style="fill:#6f6f6f; stroke:none;" d="M117 214L117 241L117.722 240.222L117.75 239.694L117.944 238.889L117.972 237.972L118 237L118 236L118 234L118 221L118 219L118 218L117.972 217.028L117.944 216.111L117.75 215.306L117.722 214.778L117 214z"/>
<path style="fill:#565656; stroke:none;" d="M119 214L120 215L119 214z"/>
<path style="fill:#444444; stroke:none;" d="M123 214L124 215L123 214z"/>
<path style="fill:#565656; stroke:none;" d="M169 214L170 215L169 214z"/>
<path style="fill:#868686; stroke:none;" d="M173 214L174 215L173 214z"/>
<path style="fill:#ff4646; stroke:none;" d="M181 214L182 215L181 214z"/>
<path style="fill:#ff8686; stroke:none;" d="M187 214L188 215L187 214z"/>
<path style="fill:#b5b5b5; stroke:none;" d="M120 215L121 216L120 215z"/>
<path style="fill:#656565; stroke:none;" d="M125 215L126 216L125 215z"/>
<path style="fill:#7d7d7d; stroke:none;" d="M167 215L168 216L167 215z"/>
<path style="fill:#a5a5a5; stroke:none;" d="M172 215L173 216L172 215z"/>
<path style="fill:#ff6d6d; stroke:none;" d="M178 215L179 216L178 215z"/>
<path style="fill:#ff3636; stroke:none;" d="M190 215L191 216L190 215z"/>
<path style="fill:#969696; stroke:none;" d="M122 216L123 217L122 216z"/>
<path style="fill:#9c9c9c; stroke:none;" d="M127 216L128 217L127 216z"/>
<path style="fill:#969696; stroke:none;" d="M165 216L166 217L165 216z"/>
<path style="fill:#7e7e7e; stroke:none;" d="M170 216L171 217L170 216z"/>
<path style="fill:#ffcece; stroke:none;" d="M183 216L183.722 216.722L184.25 216.75L186 217L185.278 216.278L184.75 216.25L183 216z"/>
<path style="fill:#ff3636; stroke:none;" d="M186 216L187 217L186 216z"/>
<path style="fill:#ffafaf; stroke:none;" d="M190 216L191 217L190 216z"/>
<path style="fill:#5d5d5d; stroke:none;" d="M124 217L125 218L124 217z"/>
<path style="fill:#b5b5b5; stroke:none;" d="M129 217L130 218L129 217z"/>
<path style="fill:#464646; stroke:none;" d="M164 217L165 218L164 217z"/>
<path style="fill:#656565; stroke:none;" d="M168 217L169 218L168 217z"/>
<path style="fill:#ffafaf; stroke:none;" d="M179 217L180 218L179 217z"/>
<path style="fill:#ff5d5d; stroke:none;" d="M189 217L190 218L189 217z"/>
<path style="fill:#464646; stroke:none;" d="M126 218L127 219L126 218z"/>
<path style="fill:#555555; stroke:none;" d="M130 218L131 219L130 218z"/>
<path style="fill:#656565; stroke:none;" d="M162 218L163 219L162 218z"/>
<path style="fill:#2d2d2d; stroke:none;" d="M166 218L167 219L166 218z"/>
<path style="fill:#b5b5b5; stroke:none;" d="M167 218L168 219L167 218z"/>
<path style="fill:#ffb5b5; stroke:none;" d="M180 218L181 219L180 218z"/>
<path style="fill:#ff9696; stroke:none;" d="M188 218L189 219L188 218z"/>
<path style="fill:#e2e2e2; stroke:none;" d="M42 219L42.7222 219.722L43.25 219.75L45 220L44.2778 219.278L43.75 219.25L42 219M51 219L51.7222 219.722L52.25 219.75L54 220L53.2778 219.278L52.75 219.25L51 219z"/>
<path style="fill:#a5a5a5; stroke:none;" d="M127 219L128 220L127 219z"/>
<path style="fill:#656565; stroke:none;" d="M132 219L133 220L132 219z"/>
<path style="fill:#969696; stroke:none;" d="M160 219L161 220L160 219z"/>
<path style="fill:#9e9e9e; stroke:none;" d="M165 219L166 220L165 219z"/>
<path style="fill:#949494; stroke:none;" d="M176 219L177 220L176 219z"/>
<path style="fill:#ff9494; stroke:none;" d="M183 219L183.722 219.722L184.25 219.75L186 220L185.278 219.278L184.75 219.25L183 219z"/>
<path style="fill:#969696; stroke:none;" d="M129 220L130 221L129 220z"/>
<path style="fill:#9c9c9c; stroke:none;" d="M134 220L135 221L134 220z"/>
<path style="fill:#b5b5b5; stroke:none;" d="M158 220L159 221L158 220z"/>
<path style="fill:#656565; stroke:none;" d="M163 220L164 221L163 220z"/>
<path style="fill:#969696; stroke:none;" d="M174 220L175 221L174 220z"/>
<path style="fill:#000000; stroke:none;" d="M175 220L173.5 221.056L172.944 221.389L171 222.611L170 223.194L168 224.389L166 225.611L164 226.75L163 227.25L161 228.389L160 229L159 229.611L157 230.75L156 231.25L154.111 232.417L153.306 233.194L152.778 233.583L152 235L153.5 234.889L155.056 234.361L156 233.917L158 232.806L159 232.194L160 231.611L162 230.389L164 229.25L165 228.75L167 227.611L169 226.389L170 225.833L171 225.25L172 224.75L173.972 223.611L175.667 222.361L176.639 221.25L177 220L175 220z"/>
<path style="fill:#565656; stroke:none;" d="M177 220L178 221L177 220z"/>
<path style="fill:#bdbdbd; stroke:none;" d="M81 221L82 222L81 221z"/>
<path style="fill:#757575; stroke:none;" d="M82 221L83 222L82 221z"/>
<path style="fill:#5d5d5d; stroke:none;" d="M131 221L132 222L131 221z"/>
<path style="fill:#2d2d2d; stroke:none;" d="M135 221L136 222L135 221z"/>
<path style="fill:#c6c6c6; stroke:none;" d="M136 221L137 222L136 221z"/>
<path style="fill:#464646; stroke:none;" d="M157 221L158 222L157 221M161 221L162 222L161 221z"/>
<path style="fill:#b5b5b5; stroke:none;" d="M172 221L173 222L172 221M177 221L178 222L177 221z"/>
<path style="fill:#cecece; stroke:none;" d="M132 222L133 223L132 222z"/>
<path style="fill:#3e3e3e; stroke:none;" d="M133 222L134 223L133 222z"/>
<path style="fill:#656565; stroke:none;" d="M137 222L138 223L137 222M155 222L156 223L155 222z"/>
<path style="fill:#b5b5b5; stroke:none;" d="M160 222L161 223L160 222z"/>
<path style="fill:#464646; stroke:none;" d="M171 222L172 223L171 222M175 222L176 223L175 222z"/>
<path style="fill:#c4c4c4; stroke:none;" d="M76 223L76.7778 223.722L77.25 223.75L78.0556 223.944L80 224L79.2222 223.278L78.75 223.25L77.9444 223.056L76 223M85 223L85.7222 223.722L86.25 223.75L88 224L87.2778 223.278L86.75 223.25L85 223z"/>
<path style="fill:#969696; stroke:none;" d="M134 223L135 224L134 223z"/>
<path style="fill:#868686; stroke:none;" d="M139 223L140 224L139 223z"/>
<path style="fill:#969696; stroke:none;" d="M153 223L154 224L153 223M158 223L159 224L158 223z"/>
<path style="fill:#6d6d6d; stroke:none;" d="M169 223L170 224L169 223z"/>
<path style="fill:#b5b5b5; stroke:none;" d="M174 223L175 224L174 223z"/>
<path style="fill:#666666; stroke:none;" d="M76 224L76 239L79 239L79 232L85 232L85 239L88 239L88 224L85 224L85 230L79 230L79 224L76 224z"/>
<path style="fill:#a9a9a9; stroke:none;" d="M79 224L79 230L79.7222 229.222L79.75 228.694L79.9444 227.889L79.9444 226.111L79.75 225.306L79.7222 224.778L79 224z"/>
<path style="fill:#b3b3b3; stroke:none;" d="M88 224L88 239L88.7222 238.222L88.75 237.694L88.9444 236.889L88.9722 235.972L89 235L89 234L89 232L89 230L89 229L88.9722 227.028L88.9444 226.111L88.75 225.306L88.7222 224.778L88 224z"/>
<path style="fill:#757575; stroke:none;" d="M136 224L137 225L136 224z"/>
<path style="fill:#a5a5a5; stroke:none;" d="M141 224L142 225L141 224z"/>
<path style="fill:#c6c6c6; stroke:none;" d="M151 224L152 225L151 224z"/>
<path style="fill:#656565; stroke:none;" d="M156 224L157 225L156 224z"/>
<path style="fill:#969696; stroke:none;" d="M167 224L168 225L167 224z"/>
<path style="fill:#8e8e8e; stroke:none;" d="M172 224L173 225L172 224z"/>
<path style="fill:#565656; stroke:none;" d="M138 225L139 226L138 225z"/>
<path style="fill:#363636; stroke:none;" d="M142 225L143 226L142 225z"/>
<path style="fill:#cecece; stroke:none;" d="M143 225L144 226L143 225z"/>
<path style="fill:#565656; stroke:none;" d="M150 225L151 226L150 225z"/>
<path style="fill:#363636; stroke:none;" d="M154 225L155 226L154 225z"/>
<path style="fill:#c6c6c6; stroke:none;" d="M165 225L166 226L165 225z"/>
<path style="fill:#363636; stroke:none;" d="M166 225L167 226L166 225z"/>
<path style="fill:#656565; stroke:none;" d="M170 225L171 226L170 225z"/>
<path style="fill:#c6c6c6; stroke:none;" d="M139 226L140 227L139 226z"/>
<path style="fill:#2d2d2d; stroke:none;" d="M140 226L141 227L140 226z"/>
<path style="fill:#656565; stroke:none;" d="M144 226L145 227L144 226z"/>
<path style="fill:#7d7d7d; stroke:none;" d="M148 226L149 227L148 226z"/>
<path style="fill:#a5a5a5; stroke:none;" d="M153 226L154 227L153 226z"/>
<path style="fill:#565656; stroke:none;" d="M164 226L165 227L164 226z"/>
<path style="fill:#363636; stroke:none;" d="M168 226L169 227L168 226z"/>
<path style="fill:#969696; stroke:none;" d="M141 227L142 228L141 227z"/>
<path style="fill:#8a8a8a; stroke:none;" d="M146.667 227.333L147 227.667L147.333 227.667L147 227.333L146.667 227.333z"/>
<path style="fill:#7e7e7e; stroke:none;" d="M151 227L152 228L151 227M162 227L163 228L162 227z"/>
<path style="fill:#a5a5a5; stroke:none;" d="M167 227L168 228L167 227z"/>
<path style="fill:#656565; stroke:none;" d="M143 228L144 229L143 228z"/>
<path style="fill:#4c4c4c; stroke:none;" d="M149.333 228.667L149.333 229L149.667 229.333L149.667 228.667L149.333 228.667z"/>
<path style="fill:#dedede; stroke:none;" d="M150.333 228.667L150.333 229L150.667 229.333L150.667 229L150.333 228.667z"/>
<path style="fill:#969696; stroke:none;" d="M160 228L161 229L160 228z"/>
<path style="fill:#7e7e7e; stroke:none;" d="M165 228L166 229L165 228z"/>
<path style="fill:#ebebeb; stroke:none;" d="M80 229L80.7778 229.722L81.3056 229.75L82.0556 229.944L82.9722 229.972L85 230L84.2222 229.278L83.6944 229.25L82.9444 229.056L82.0278 229.028L80 229z"/>
<path style="fill:#4e4e4e; stroke:none;" d="M145 229L146 230L145 229z"/>
<path style="fill:#cecece; stroke:none;" d="M158 229L159 230L158 229z"/>
<path style="fill:#3e3e3e; stroke:none;" d="M159 229L160 230L159 229z"/>
<path style="fill:#656565; stroke:none;" d="M163 229L164 230L163 229z"/>
<path style="fill:#adadad; stroke:none;" d="M146 230L147 231L146 230z"/>
<path style="fill:#808080; stroke:none;" d="M151 230L152 231L151 230z"/>
<path style="fill:#5f5f5f; stroke:none;" d="M157 230L158 231L157 230z"/>
<path style="fill:#363636; stroke:none;" d="M161 230L162 231L161 230z"/>
<path style="fill:#c6c6c6; stroke:none;" d="M162 230L163 231L162 230z"/>
<path style="fill:#969696; stroke:none;" d="M148 231L149 232L148 231M155 231L156 232L155 231z"/>
<path style="fill:#9e9e9e; stroke:none;" d="M160 231L161 232L160 231z"/>
<path style="fill:#a9a9a9; stroke:none;" d="M79 232L79 239L79.7222 238.222L79.75 237.694L79.9444 236.889L79.9722 235.028L79.9444 234.111L79.75 233.306L79.7222 232.778L79 232z"/>
<path style="fill:#4e4e4e; stroke:none;" d="M149 232L149 271L149.722 270.222L149.75 269.694L149.944 268.889L149.972 267.972L150 266L150 265L150 262L150 242L150 239L150 237L149.972 235.028L149.944 234.111L149.75 233.306L149.722 232.778L149 232z"/>
<path style="fill:#373737; stroke:none;" d="M151 232L151.028 233.472L151.278 234.722L151.861 235.639L153 236L152.694 234.361L152.556 233.667L152.194 233.083L152.083 232.694L151 232z"/>
<path style="fill:#b5b5b5; stroke:none;" d="M153 232L154 233L153 232z"/>
<path style="fill:#656565; stroke:none;" d="M158 232L159 233L158 232z"/>
<path style="fill:#464646; stroke:none;" d="M156 233L157 234L156 233z"/>
<path style="fill:#b5b5b5; stroke:none;" d="M155 234L156 235L155 234z"/>
<path style="fill:#969696; stroke:none;" d="M153 235L154 236L153 235z"/>
<path style="fill:#4e4e4e; stroke:none;" d="M151 236L151 271L151.722 270.222L151.75 269.694L151.944 268.889L151.972 267.972L152 266L152 265L152 262L152 245L152 242L152 241L151.972 239.028L151.944 238.111L151.75 237.306L151.722 236.778L151 236z"/>
<path style="fill:#bdbdbd; stroke:none;" d="M116 241L117 242L116 241z"/>
<path style="fill:#4e4eff; stroke:none;" d="M110 243L110.778 243.722L111.25 243.75L112.056 243.944L114 244L113.222 243.278L112.75 243.25L111.944 243.056L110 243z"/>
<path style="fill:#adadff; stroke:none;" d="M119 243L119 245.056L119 246.056L118.917 248L118.667 249.944L118.639 250.944L118.528 251.5L119 253L119.722 252.222L119.75 251.694L119.944 250.889L119.972 249.972L120 248L119.972 246.028L119.944 245.111L119.75 244.306L119.722 243.778L119 243z"/>
<path style="fill:#4e4eff; stroke:none;" d="M120 243L120.722 243.722L121.25 243.75L123 244L122.278 243.278L121.75 243.25L120 243z"/>
<path style="fill:#efefff; stroke:none;" d="M109 244L109 259L109.722 258.222L109.75 257.694L109.944 256.889L109.972 255.972L110 254L110 253L110 251L110 249L110 248L109.972 247.028L109.944 246.111L109.75 245.306L109.722 244.778L109 244z"/>
<path style="fill:#0000ff; stroke:none;" d="M110 244L110 258L113 258L113 249L114.25 250.5L114.639 251.056L115.972 253L117.194 254.972L118.472 256.667L119.194 257.278L120.528 257.889L122 258L122 244L120 244L120 253L118.75 251.5L117.639 249.944L116.389 248L115.861 247.056L115.25 246.056L115 245.5L114 244L110 244z"/>
<path style="fill:#8c8cff; stroke:none;" d="M114 244L115 245L114 244z"/>
<path style="fill:#2e2eff; stroke:none;" d="M122 244L122 258L122.722 257.222L122.75 256.694L122.944 255.889L122.972 254.972L123 254L123 253L123 251L123 249L123 248L122.972 247.028L122.944 246.111L122.75 245.306L122.722 244.778L122 244z"/>
<path style="fill:#6565ff; stroke:none;" d="M115 246L116 247L115 246z"/>
<path style="fill:#3636ff; stroke:none;" d="M116 248L117 249L116 248z"/>
<path style="fill:#dedeff; stroke:none;" d="M113 249L113 258L113.722 257.222L113.75 256.694L113.944 255.889L113.972 254.972L114 253L113.944 251.111L113.75 250.306L113.722 249.778L113 249z"/>
<path style="fill:#adadff; stroke:none;" d="M117 249L118 250L117 249z"/>
<path style="fill:#7575ff; stroke:none;" d="M114 250L115 251L114 250z"/>
<path style="fill:#9e9eff; stroke:none;" d="M115 252L116 253L115 252z"/>
<path style="fill:#3e3eff; stroke:none;" d="M116 253L117 254L116 253z"/>
<path style="fill:#c6c6ff; stroke:none;" d="M116 254L117 255L116 254z"/>
<path style="fill:#5f5f5f; stroke:none;" d="M106 255L107 256L106 255z"/>
<path style="fill:#adadad; stroke:none;" d="M107 255L108 256L107 255z"/>
<path style="fill:#5d5dff; stroke:none;" d="M117 255L118 256L117 255z"/>
<path style="fill:#656565; stroke:none;" d="M104 256L105 257L104 256z"/>
<path style="fill:#000000; stroke:none;" d="M91 266L92.5 265.722L94.0556 265.083L95 264.583L97 263.389L99 262.25L100 261.75L102 260.611L104 259.389L105.944 258.25L106.5 258L108 257L107.222 256.306L106.694 256.333L105.889 256.306L104.972 256.5L103 257.278L102 257.833L101 258.389L99 259.611L97 260.806L96 261.389L94.0278 262.611L92.3333 263.778L91.7222 264.417L91.3611 264.778L91 266z"/>
<path style="fill:#969696; stroke:none;" d="M102 257L103 258L102 257z"/>
<path style="fill:#afafaf; stroke:none;" d="M107 257L108 258L107 257z"/>
<path style="fill:#8686ff; stroke:none;" d="M118 257L119 258L118 257z"/>
<path style="fill:#c6c6c6; stroke:none;" d="M100 258L101 259L100 258z"/>
<path style="fill:#656565; stroke:none;" d="M105 258L106 259L105 258z"/>
<path style="fill:#6f6fff; stroke:none;" d="M110 258L110.722 258.722L111.25 258.75L113 259L112.278 258.278L111.75 258.25L110 258M119 258L119.778 258.722L120.25 258.75L121.056 258.944L123 259L122.222 258.278L121.75 258.25L120.944 258.056L119 258z"/>
<path style="fill:#4e4e4e; stroke:none;" d="M99 259L100 260L99 259z"/>
<path style="fill:#3e3e3e; stroke:none;" d="M103 259L104 260L103 259z"/>
<path style="fill:#7e7e7e; stroke:none;" d="M97 260L98 261L97 260z"/>
<path style="fill:#adadad; stroke:none;" d="M102 260L103 261L102 260z"/>
<path style="fill:#a5a5a5; stroke:none;" d="M110 260L111 261L110 260z"/>
<path style="fill:#969696; stroke:none;" d="M95 261L96 262L95 261z"/>
<path style="fill:#868686; stroke:none;" d="M100 261L101 262L100 261z"/>
<path style="fill:#000000; stroke:none;" d="M109 261L108.472 262.5L108.111 263.056L107.583 264.056L106.389 266L105.806 267L104.611 269L103.389 271L102.25 273L101.75 274L100.611 276L99.3889 278L98.8333 279L98.25 280L97.7778 281L97.25 282L96.8611 282.944L96.2778 284.5L96 286L97.4167 285.222L97.8056 284.694L98.5833 283.889L99.1667 282.972L100.389 281L101.611 279L102.167 278L102.75 277L103.25 276L104.389 274L105.611 272L106.75 270L107.25 269L108.389 267L109.583 265L110.083 264.056L110.722 262.5L111 261L109 261z"/>
<path style="fill:#e6e6e6; stroke:none;" d="M111.333 261.667L111.333 262.333L111.667 262.333L111.667 261.667L111.333 261.667z"/>
<path style="fill:#c6c6c6; stroke:none;" d="M93 262L94 263L93 262z"/>
<path style="fill:#363636; stroke:none;" d="M94 262L95 263L94 262z"/>
<path style="fill:#656565; stroke:none;" d="M98 262L99 263L98 262z"/>
<path style="fill:#565656; stroke:none;" d="M108 262L109 263L108 262z"/>
<path style="fill:#666666; stroke:none;" d="M76 263L76 278L79 278L79 271L85 271L85 278L88 278L88 263L85 263L85 270L80 270L79 269L79 263L76 263z"/>
<path style="fill:#a9a9a9; stroke:none;" d="M79 263L79 269L79.7222 268.222L79.75 267.694L79.9444 266.889L79.9444 265.111L79.75 264.306L79.7222 263.778L79 263z"/>
<path style="fill:#b3b3b3; stroke:none;" d="M88 263L88 278L88.7222 277.222L88.75 276.694L88.9444 275.889L88.9722 274.972L89 274L89 273L89 271L89 269L89 268L88.9722 266.028L88.9444 265.111L88.75 264.306L88.7222 263.778L88 263z"/>
<path style="fill:#565656; stroke:none;" d="M92 263L93 264L92 263z"/>
<path style="fill:#353535; stroke:none;" d="M96 263L97 264L96 263z"/>
<path style="fill:#c6c6c6; stroke:none;" d="M97 263L98 264L97 263z"/>
<path style="fill:#bdbdbd; stroke:none;" d="M107 263L108 264L107 263z"/>
<path style="fill:#7e7e7e; stroke:none;" d="M110 263L111 264L110 263z"/>
<path style="fill:#a4a4a4; stroke:none;" d="M95 264L96 265L95 264z"/>
<path style="fill:#2d2d2d; stroke:none;" d="M107 264L108 265L107 264z"/>
<path style="fill:#9e9e9e; stroke:none;" d="M90 265L91 266L90 265z"/>
<path style="fill:#7d7d7d; stroke:none;" d="M93 265L94 266L93 265z"/>
<path style="fill:#969696; stroke:none;" d="M106 265L107 266L106 265z"/>
<path style="fill:#a7a7a7; stroke:none;" d="M109 265L110 266L109 265z"/>
<path style="fill:#dedede; stroke:none;" d="M91.6667 266.333L92 266.667L92.3333 266.667L92.3333 266.333L91.6667 266.333z"/>
<path style="fill:#3e3e3e; stroke:none;" d="M108 266L109 267L108 266z"/>
<path style="fill:#757575; stroke:none;" d="M105 267L106 268L105 267z"/>
<path style="fill:#cecece; stroke:none;" d="M108 267L109 268L108 267z"/>
<path style="fill:#656565; stroke:none;" d="M107 268L108 269L107 268z"/>
<path style="fill:#8b8b8b; stroke:none;" d="M80 269L80.7778 269.722L81.3056 269.75L82.0556 269.944L82.9722 269.972L85 270L84.2222 269.278L83.6944 269.25L82.9444 269.056L82.0278 269.028L80 269z"/>
<path style="fill:#464646; stroke:none;" d="M104 269L105 270L104 269z"/>
<path style="fill:#bdbdbd; stroke:none;" d="M103 270L104 271L103 270z"/>
<path style="fill:#868686; stroke:none;" d="M106 270L107 271L106 270z"/>
<path style="fill:#a9a9a9; stroke:none;" d="M79 271L79 278L79.7222 277.222L79.75 276.694L79.9444 275.889L79.9722 274.972L79.9444 273.111L79.75 272.306L79.7222 271.778L79 271z"/>
<path style="fill:#bababa; stroke:none;" d="M80 271L80.7778 271.722L81.3056 271.75L82.0556 271.944L82.9722 271.972L85 272L84.2222 271.278L83.6944 271.25L82.9444 271.056L82.0278 271.028L80 271z"/>
<path style="fill:#c6c6c6; stroke:none;" d="M149 271L150 272L149 271z"/>
<path style="fill:#464646; stroke:none;" d="M150 271L151 272L150 271z"/>
<path style="fill:#c6c6c6; stroke:none;" d="M151 271L152 272L151 271z"/>
<path style="fill:#8e8e8e; stroke:none;" d="M102 272L103 273L102 272z"/>
<path style="fill:#b5b5b5; stroke:none;" d="M105 272L106 273L105 272z"/>
<path style="fill:#3e3e3e; stroke:none;" d="M104 273L105 274L104 273z"/>
<path style="fill:#656565; stroke:none;" d="M101 274L102 275L101 274z"/>
<path style="fill:#757575; stroke:none;" d="M103 275L104 276L103 275z"/>
<path style="fill:#3e3e3e; stroke:none;" d="M100 276L101 277L100 276z"/>
<path style="fill:#adadad; stroke:none;" d="M99 277L100 278L99 277z"/>
<path style="fill:#969696; stroke:none;" d="M102 277L103 278L102 277z"/>
<path style="fill:#d7d7d7; stroke:none;" d="M76 278L76.7778 278.722L77.25 278.75L78.0556 278.944L80 279L79.2222 278.278L78.75 278.25L77.9444 278.056L76 278M85 278L85.7778 278.722L86.25 278.75L87.0556 278.944L89 279L88.2222 278.278L87.75 278.25L86.9444 278.056L85 278z"/>
<path style="fill:#7e7e7e; stroke:none;" d="M98 279L99 280L98 279z"/>
<path style="fill:#bdbdbd; stroke:none;" d="M101 279L102 280L101 279z"/>
<path style="fill:#4e4e4e; stroke:none;" d="M100 280L101 281L100 280z"/>
<path style="fill:#656565; stroke:none;" d="M97 281L98 282L97 281z"/>
<path style="fill:#c6c6c6; stroke:none;" d="M96 282L97 283L96 282z"/>
<path style="fill:#7d7d7d; stroke:none;" d="M99 282L100 283L99 282z"/>
<path style="fill:#3e3e3e; stroke:none;" d="M96 283L97 284L96 283z"/>
<path style="fill:#b5b5b5; stroke:none;" d="M95.3333 284.667L95.3333 285.333L95.6667 285.333L95.6667 284.667L95.3333 284.667z"/>
<path style="fill:#a7a7a7; stroke:none;" d="M98 284L99 285L98 284z"/>
<path style="fill:#3c3c3c; stroke:none;" d="M97 285L98 286L97 285z"/>
<path style="fill:#cccccc; stroke:none;" d="M0 289L0 291L194 291L194 289L0 289z"/>
</svg>
